SplineFontDB: 3.0
FontName: EngravingCC
FullName: Engraving CC
FamilyName: Engraving CC
Weight: Bold
Copyright: Copyright 2020 The Cowboy Collective (https://cowboycollective.cc)
UComments: "Made with love by indestructible type* for the Cowboy Collective"
Version: 001.000
ItalicAngle: 0
UnderlinePosition: -200
UnderlineWidth: 100
Ascent: 1600
Descent: 400
InvalidEm: 0
LayerCount: 2
Layer: 0 0 "Back" 1
Layer: 1 0 "Fore" 0
PreferredKerning: 4
XUID: [1021 31 -699969567 16188444]
FSType: 0
OS2Version: 0
OS2_WeightWidthSlopeOnly: 0
OS2_UseTypoMetrics: 0
CreationTime: 1465610489
ModificationTime: 1594194729
PfmFamily: 33
TTFWeight: 700
TTFWidth: 5
LineGap: 0
VLineGap: 0
OS2TypoAscent: 2060
OS2TypoAOffset: 0
OS2TypoDescent: -700
OS2TypoDOffset: 0
OS2TypoLinegap: 0
OS2WinAscent: 2060
OS2WinAOffset: 0
OS2WinDescent: 700
OS2WinDOffset: 0
HheadAscent: 2060
HheadAOffset: 0
HheadDescent: -700
HheadDOffset: 0
OS2CapHeight: 700
OS2XHeight: 460
OS2Vendor: 'it* '
Lookup: 258 0 0 "'kern' Horizontal Kerning lookup 0" { "kerning like they all do" [150,0,6] } ['kern' ('DFLT' <'dflt' > 'grek' <'dflt' > 'latn' <'dflt' > ) ]
MarkAttachClasses: 1
DEI: 91125
KernClass2: 16 12 "kerning like they all do"
 108 A backslash a agrave aacute acircumflex atilde adieresis aring Amacron amacron Abreve abreve Aogonek aogonek
 197 D O d o Ograve Oacute Ocircumflex Otilde Odieresis Oslash eth ograve oacute ocircumflex otilde odieresis oslash Dcaron dcaron Dcroat dcroat Omacron omacron Obreve obreve Ohungarumlaut ohungarumlaut
 32 K X k x ccedilla uni0136 uni0137
 31 V W v w Wcircumflex wcircumflex
 57 L l Lacute lacute Lcommaaccent lcommaaccent Lslash lslash
 47 F T f t uni0162 uni0163 Tcaron tcaron Tbar tbar
 54 Y y Yacute ydieresis Ycircumflex ycircumflex Ydieresis
 173 J U j u Ugrave Uacute Ucircumflex Udieresis IJ ij Jcircumflex jcircumflex Utilde utilde Umacron umacron Ubreve ubreve Uring uring Uhungarumlaut uhungarumlaut Uogonek uogonek
 3 P p

StartChar: H
Encoding: 72 72 0
GlifName: H_
Width: 2415
Flags: HMW
AnchorPoint: "cedilla" 591 0 basechar 0
AnchorPoint: "bottom" 1206 0 basechar 0
AnchorPoint: "top" 1205 1400 basechar 0
LayerCount: 2
Fore
SplineSet
794 711 m 1
 794 740 l 1
 1646 740 l 1
 1646 711 l 1
 794 711 l 1
2335 1380 m 1
 2253.97558594 1371 2203.97363281 1360.578125 2138.70800781 1335 c 0
 2038.28808594 1295.64453125 2011 1280 2011 1225 c 9
 2011 1400 l 1
 2335 1400 l 1
 2335 1380 l 1
2335 20 m 1
 2335 0 l 1
 2011 0 l 1
 2011 175 l 17
 2011 120 2038.28808594 104.35546875 2138.70800781 65 c 0
 2203.97363281 39.421875 2253.97558594 29 2335 20 c 1
1130 1380 m 1
 1048.97558594 1371 998.973632812 1360.578125 933.708007812 1335 c 0
 833.288085938 1295.64453125 806 1280 806 1225 c 9
 806 1400 l 1
 1130 1400 l 1
 1130 1380 l 1
1130 20 m 1
 1130 0 l 1
 806 0 l 1
 806 175 l 17
 806 120 833.288085938 104.35546875 933.708007812 65 c 0
 998.973632812 39.421875 1048.97558594 29 1130 20 c 1
1285 20 m 1
 1366.02441406 29 1416.02636719 39.421875 1481.29199219 65 c 0
 1581.71191406 104.35546875 1609 120 1609 175 c 9
 1609 0 l 1
 1285 0 l 1
 1285 20 l 1
1285 1380 m 1
 1285 1400 l 1
 1609 1400 l 1
 1609 1225 l 17
 1609 1280 1581.71191406 1295.64453125 1481.29199219 1335 c 0
 1416.02636719 1360.578125 1366.02441406 1371 1285 1380 c 1
80 20 m 1
 161.024414062 29 211.026367188 39.421875 276.291992188 65 c 0
 376.711914062 104.35546875 404 120 404 175 c 9
 404 0 l 1
 80 0 l 1
 80 20 l 1
80 1380 m 1
 80 1400 l 1
 404 1400 l 1
 404 1225 l 17
 404 1280 376.711914062 1295.64453125 276.291992188 1335 c 0
 211.026367188 1360.578125 161.024414062 1371 80 1380 c 1
1609 1400 m 1
 2011 1400 l 1
 2011 0 l 1
 1609 0 l 1
 1609 1400 l 1
404 1400 m 1
 806 1400 l 1
 806 0 l 1
 404 0 l 1
 404 1400 l 1
EndSplineSet
EndChar

StartChar: O
Encoding: 79 79 1
GlifName: O_
Width: 2320
Flags: HMW
AnchorPoint: "bottom" 1160 0 basechar 0
AnchorPoint: "top" 1160 1400 basechar 0
LayerCount: 2
Fore
SplineSet
1160 -20 m 0
 646 -20 160 256 160 700 c 0
 160 1144 664 1420 1160 1420 c 0
 1656 1420 2160 1144 2160 700 c 0
 2160 256 1674 -20 1160 -20 c 0
1160 1395 m 0
 812 1395 630 1164 630 700 c 0
 630 236 792 5 1160 5 c 0
 1568 5 1690 236 1690 700 c 0
 1690 1164 1548 1395 1160 1395 c 0
EndSplineSet
EndChar

StartChar: I
Encoding: 73 73 2
GlifName: I_
Width: 1210
Flags: HMW
AnchorPoint: "cedilla" 606 0 basechar 0
AnchorPoint: "bottom" 606 0 basechar 0
AnchorPoint: "top" 602 1400 basechar 0
LayerCount: 2
Fore
SplineSet
1130 1380 m 1
 1048.97558594 1371 998.973632812 1360.578125 933.708007812 1335 c 0
 833.288085938 1295.64453125 806 1280 806 1225 c 9
 806 1400 l 1
 1130 1400 l 1
 1130 1380 l 1
1130 20 m 1
 1130 0 l 1
 806 0 l 1
 806 175 l 17
 806 120 833.288085938 104.35546875 933.708007812 65 c 0
 998.973632812 39.421875 1048.97558594 29 1130 20 c 1
80 20 m 1
 161.024414062 29 211.026367188 39.421875 276.291992188 65 c 0
 376.711914062 104.35546875 404 120 404 175 c 9
 404 0 l 1
 80 0 l 1
 80 20 l 1
80 1380 m 1
 80 1400 l 1
 404 1400 l 1
 404 1225 l 17
 404 1280 376.711914062 1295.64453125 276.291992188 1335 c 4
 211.026367188 1360.578125 161.024414062 1371 80 1380 c 1
404 1400 m 1
 806 1400 l 1
 806 0 l 1
 404 0 l 1
 404 1400 l 1
EndSplineSet
EndChar

StartChar: C
Encoding: 67 67 3
GlifName: C_
Width: 2212
Flags: HMW
AnchorPoint: "cedilla" 1140 0 basechar 0
AnchorPoint: "bottom" 1140 0 basechar 0
AnchorPoint: "top" 1141 1400 basechar 0
LayerCount: 2
Fore
SplineSet
1990 1414 m 25
 2010 1414 l 1
 2010 903 l 1
 1990 903 l 1
 1804 1151 1523 1395 1151 1395 c 0
 883 1395 630 1134 630 700 c 0
 630 266 903 15 1240 15 c 0
 1544 15 1896 109 2022 472 c 1
 2052 472 l 1
 1922 86 1556 -20 1170 -20 c 0
 634 -20 160 256 160 700 c 0
 160 1144 624 1425 1140 1425 c 0
 1352 1425 1507.64355469 1356.62988281 1667 1267 c 0
 1691.23144531 1253.37109375 1747.05273438 1249.69433594 1817 1297 c 2
 1990 1414 l 25
EndSplineSet
EndChar

StartChar: E
Encoding: 69 69 4
GlifName: E_
Width: 2104
Flags: HMW
AnchorPoint: "cedilla" 1626 0 basechar 0
AnchorPoint: "bottom" 1066 0 basechar 0
AnchorPoint: "top" 1084 1400 basechar 0
LayerCount: 2
Fore
SplineSet
80 20 m 1
 161.024414062 29 211.026367188 39.421875 276.291992188 65 c 0
 376.711914062 104.35546875 404 120 404 175 c 9
 404 0 l 1
 80 0 l 1
 80 20 l 1
1410 446 m 5
 1369.89550781 513.232421875 1315.41807262 562.137358178 1270 614.264648438 c 4
 1227.12207031 663.4765625 1187.80566406 711 1112 711 c 6
 752 711 l 5
 752 741 l 5
 1112 741 l 6
 1184.92480469 741 1232.46941904 804.983263686 1278 863.4296875 c 4
 1314.30859375 910.038085938 1383.70996094 1007.28515625 1410 1066 c 5
 1430 1066 l 5
 1430 446 l 5
 1410 446 l 5
806 1400 m 1
 1904 1400 l 1
 1904 920 l 1
 1884 920 l 1
 1824.66601562 1014.62304688 1747.19921875 1097.50390625 1658 1189.49609375 c 0
 1566.74191609 1283.61161273 1495.84082031 1370 1352 1370 c 2
 806 1370 l 1
 806 1400 l 1
404 1400 m 1
 806 1400 l 1
 806 0 l 1
 404 0 l 1
 404 1400 l 1
1884 530 m 1
 1904 530 l 1
 1904 0 l 1
 806 0 l 1
 806 30 l 1
 1332 30 l 2
 1517.8671875 30 1599.44162394 145.689183043 1703 268.28125 c 0
 1787.40136719 368.1953125 1855.42871094 459.045898438 1884 530 c 1
80 1380 m 1
 80 1400 l 1
 404 1400 l 1
 404 1225 l 17
 404 1280 376.711914062 1295.64453125 276.291992188 1335 c 0
 211.026367188 1360.578125 161.024414062 1371 80 1380 c 1
EndSplineSet
EndChar

StartChar: F
Encoding: 70 70 6
GlifName: F_
Width: 1932
Flags: HMW
AnchorPoint: "bottom" 636 0 basechar 0
AnchorPoint: "top" 1084 1400 basechar 0
LayerCount: 2
Fore
SplineSet
1410 446 m 1
 1369.89550781 513.232421875 1315.41807262 562.137358178 1270 614.264648438 c 0
 1227.12207031 663.4765625 1187.80566406 711 1112 711 c 2
 752 711 l 1
 752 741 l 1
 1112 741 l 2
 1184.92480469 741 1232.46941904 804.983263686 1278 863.4296875 c 0
 1314.30859375 910.038085938 1383.70996094 1007.28515625 1410 1066 c 1
 1430 1066 l 1
 1430 446 l 1
 1410 446 l 1
1130 20 m 1
 1130 0 l 1
 806 0 l 1
 806 175 l 17
 806 120 833.288085938 104.35546875 933.708007812 65 c 0
 998.973632812 39.421875 1048.97558594 29 1130 20 c 1
80 20 m 1
 161.024414062 29 211.026367188 39.421875 276.291992188 65 c 0
 376.711914062 104.35546875 404 120 404 175 c 9
 404 0 l 1
 80 0 l 1
 80 20 l 1
80 1380 m 1
 80 1400 l 1
 404 1400 l 1
 404 1225 l 17
 404 1280 376.711914062 1295.64453125 276.291992188 1335 c 0
 211.026367188 1360.578125 161.024414062 1371 80 1380 c 1
404 1400 m 1
 806 1400 l 1
 806 0 l 1
 404 0 l 1
 404 1400 l 1
806 1400 m 1
 1904 1400 l 1
 1904 920 l 1
 1884 920 l 1
 1824.66601562 1014.62304688 1747.19921875 1097.50390625 1658 1189.49609375 c 0
 1566.74191609 1283.61161273 1495.84082031 1370 1352 1370 c 2
 806 1370 l 1
 806 1400 l 1
EndSplineSet
EndChar

StartChar: G
Encoding: 71 71 7
GlifName: G_
Width: 2476
Flags: HMW
AnchorPoint: "top" 1141 1400 basechar 0
AnchorPoint: "bottom" 1240 0 basechar 0
AnchorPoint: "cedilla" 1240 0 basechar 0
LayerCount: 2
Fore
SplineSet
1406 620 m 1
 1406 640 l 1
 1730 640 l 1
 1730 465 l 17
 1730 520 1702 536 1602 575 c 0
 1537 601 1487 611 1406 620 c 1
2456 620 m 1
 2375 611 2325 601 2260 575 c 0
 2160 536 2132 520 2132 465 c 9
 2132 640 l 1
 2456 640 l 1
 2456 620 l 1
2070 1414 m 1
 2090 1414 l 1
 2090 903 l 1
 2070 903 l 1
 1894 1181 1553 1391 1201 1391 c 0
 893 1391 630 1134 630 700 c 0
 630 266 892 10 1260 10 c 0
 1384 10 1554 27 1629 78 c 0
 1663 101 1730 150 1730 200 c 2
 1730 640 l 1
 2132 640 l 1
 2132 245 l 2
 2132 150 2147 133 2168 108 c 0
 2189 83 2217 59 2249 36 c 1
 2240 22 l 1
 2212 38.7568359375 2160.35546875 67.3974609375 2132 80 c 0
 2078 104 2024 115 1960 115 c 0
 1870 115 1800 95 1730 70 c 0
 1610 24 1476 -20 1240 -20 c 0
 634 -20 160 256 160 700 c 0
 160 1144 664 1425 1180 1425 c 0
 1392 1425 1588 1357 1747 1267 c 0
 1771 1253 1827 1250 1897 1297 c 2
 2070 1414 l 1
EndSplineSet
EndChar

StartChar: T
Encoding: 84 84 8
GlifName: T_
Width: 1870
Flags: HMW
AnchorPoint: "cedilla" 935 0 basechar 0
AnchorPoint: "bottom" 935 0 basechar 0
AnchorPoint: "top" 944 1400 basechar 0
LayerCount: 2
Fore
SplineSet
720 1400 m 1
 720 1370 l 1
 590 1370 l 2
 451.458984375 1370 357.757643945 1230.34445436 274 1129.49609375 c 0
 186.80078125 1024.50390625 107.333984375 904.623046875 48 820 c 1
 28 820 l 1
 28 1400 l 1
 720 1400 l 1
1474 20 m 1
 1474 0 l 1
 1150 0 l 1
 1150 175 l 17
 1150 120 1177.28808594 104.35546875 1277.70800781 65 c 0
 1342.97363281 39.421875 1392.97558594 29 1474 20 c 1
396 20 m 1
 477.024414062 29 527.026367188 39.421875 592.291992188 65 c 0
 692.711914062 104.35546875 720 120 720 175 c 9
 720 0 l 1
 396 0 l 1
 396 20 l 1
1150 1400 m 1
 1842 1400 l 1
 1842 820 l 1
 1822 820 l 1
 1762.66601562 904.623046875 1683.19921875 1024.50390625 1596 1129.49609375 c 0
 1512.24235606 1230.34445436 1418.54101562 1370 1280 1370 c 2
 1150 1370 l 1
 1150 1400 l 1
720 1400 m 1
 1150 1400 l 1
 1150 0 l 1
 720 0 l 1
 720 1400 l 1
EndSplineSet
EndChar

StartChar: L
Encoding: 76 76 9
GlifName: L_
Width: 1984
Flags: HMW
AnchorPoint: "cedilla" 1006 0 basechar 0
AnchorPoint: "bottom" 1006 0 basechar 0
AnchorPoint: "top" 604 1400 basechar 0
LayerCount: 2
Fore
SplineSet
1130 1380 m 1
 1049 1371 999 1361 934 1335 c 0
 834.340820312 1295.13671875 806 1280 806 1225 c 9
 806 1400 l 1
 1130 1400 l 1
 1130 1380 l 1
80 20 m 1
 161.024414062 29 211.026367188 39.421875 276.291992188 65 c 0
 376.711914062 104.35546875 404 120 404 175 c 9
 404 0 l 1
 80 0 l 1
 80 20 l 1
404 1400 m 1
 806 1400 l 1
 806 0 l 1
 404 0 l 1
 404 1400 l 1
1884 550 m 1
 1904 550 l 1
 1904 0 l 1
 806 0 l 1
 806 30 l 1
 1282 30 l 2
 1437.8671875 30 1512.2684874 112.115510536 1663 268.28125 c 0
 1797.73242188 407.87109375 1855.42871094 479.045898438 1884 550 c 1
80 1380 m 1
 80 1400 l 1
 404 1400 l 1
 404 1225 l 17
 404 1280 376.711914062 1295.64453125 276.291992188 1335 c 0
 211.026367188 1360.578125 161.024414062 1371 80 1380 c 1
EndSplineSet
EndChar

StartChar: D
Encoding: 68 68 10
GlifName: D_
Width: 2244
Flags: HMW
AnchorPoint: "cedilla" 1066 0 basechar 0
AnchorPoint: "bottom" 1066 0 basechar 0
AnchorPoint: "top" 1084 1400 basechar 0
LayerCount: 2
Fore
SplineSet
80 20 m 1
 161.024414062 29 211.026367188 39.421875 276.291992188 65 c 0
 376.711914062 104.35546875 404 120 404 175 c 9
 404 0 l 1
 80 0 l 1
 80 20 l 1
80 1380 m 1
 80 1400 l 1
 404 1400 l 1
 404 1225 l 17
 404 1280 376.711914062 1295.64453125 276.291992188 1335 c 0
 211.026367188 1360.578125 161.024414062 1371 80 1380 c 1
404 1400 m 1
 806 1400 l 1
 806 0 l 1
 404 0 l 1
 404 1400 l 1
1224 0 m 2
 806 0 l 1
 806 30 l 1
 1224 30 l 2
 1501.12988281 30 1664 176 1664 700 c 0
 1664 1224 1482 1370 1224 1370 c 2
 806 1370 l 1
 806 1400 l 1
 1224 1400 l 2
 1730 1400 2144 1116 2144 700 c 0
 2144 284 1708.47851562 0 1224 0 c 2
EndSplineSet
EndChar

StartChar: Q
Encoding: 81 81 11
GlifName: Q_
Width: 2326
Flags: HMW
AnchorPoint: "top" 1166 1400 basechar 0
LayerCount: 2
Fore
SplineSet
863 14 m 257
 863 168.627929688 971.868164062 238 1121 238 c 256
 1294.11914062 238 1410.78613281 115.358398438 1518 -11.93359375 c 0
 1633.66601562 -149.259765625 1748.328125 -292 1901 -292 c 256
 2039 -292 2068 -210 2078 -66 c 257
 2098 -66 l 257
 2098 -363.786132812 1960.83984375 -502 1701 -502 c 256
 1442.20703125 -502 1325.828125 -320.038085938 1267.01074219 -143 c 0
 1210.27929688 27.7568359375 1171.36132812 188 1041 188 c 256
 949 188 893 134 893 14 c 257
 863 14 l 257
1166 -20 m 0
 652 -20 166 256 166 700 c 0
 166 1144 670 1420 1166 1420 c 0
 1662 1420 2166 1144 2166 700 c 0
 2166 256 1680 -20 1166 -20 c 0
1166 1395 m 0
 818 1395 636 1164 636 700 c 0
 636 236 798 5 1166 5 c 0
 1574 5 1696 236 1696 700 c 0
 1696 1164 1554 1395 1166 1395 c 0
EndSplineSet
EndChar

StartChar: A
Encoding: 65 65 12
GlifName: A_
Width: 2320
Flags: HMW
AnchorPoint: "cedilla" 1706 0 basechar 0
AnchorPoint: "bottom" 986 0 basechar 0
AnchorPoint: "top" 1090 1400 basechar 0
LayerCount: 2
Back
SplineSet
840 1006 m 1
 1100 1430 l 1
 2060 0 l 1
 1560 0 l 1
 1545.68554688 20 l 1
 1220 20 l 2
 1284.02441406 20 1349.36523438 54.978515625 1392.29199219 79 c 0
 1427.31738281 98.599609375 1467.78417969 128.845703125 1450.43652344 153.084960938 c 2
 840 1006 l 1
1196 20 m 1
 2270 20 l 1
 2270 0 l 1
 1196 0 l 1
 1196 20 l 1
500 465 m 1
 1298 465 l 1
 1298 435 l 1
 500 435 l 1
 500 465 l 1
1952 20 m 1
 1952 160 l 17
 1981 116 2001.76367188 100.233398438 2039.70800781 79 c 0
 2082.63476562 54.978515625 2147.97558594 20 2212 20 c 9
 1952 20 l 1
90 20 m 1
 130 20 l 2
 197.559570312 20 277.186523438 124.815429688 320 193 c 2
 320.021484375 192.79296875 l 1
 1100 1430 l 1
 1100 1380 l 1
 480.166992188 396.81640625 l 2
 441.788085938 335.940429688 492.893554688 260.711914062 542.708007812 188 c 0
 598.150390625 107.073242188 635.543945312 56.7666015625 670.7421875 34 c 0
 680.79296875 27.4990234375 697 20 726 20 c 2
 770 20 l 1
 770 0 l 1
 90 0 l 1
 90 20 l 1
EndSplineSet
Fore
SplineSet
870 1021 m 1
 1090 1430 l 1
 1952 160 l 2
 1981 116 2002 100 2040 79 c 0
 2083 55 2148 20 2212 20 c 2
 2270 20 l 1
 2270 0 l 1
 2060 0 l 1
 1610 0 l 1
 1246 0 l 1
 1246 20 l 1
 1270 20 l 2
 1334 20 1399 55 1442 79 c 0
 1497 111 1509 142 1487 173 c 2
 870 1021 l 1
530 465 m 1
 1298 465 l 1
 1298 435 l 1
 520 435 l 1
 530 465 l 1
80 20 m 1
 120 20 l 2
 176 20 238 110 313 196 c 0
 387 281 452 371 473 404 c 2
 1090 1430 l 1
 1090 1380 l 1
 500 397 l 2
 463 336 503 261 553 188 c 0
 608 107 646 57 681 34 c 0
 691 27 707 20 736 20 c 2
 780 20 l 1
 780 0 l 1
 80 0 l 1
 80 20 l 1
EndSplineSet
EndChar

StartChar: R
Encoding: 82 82 13
GlifName: R_
Width: 2340
Flags: HMW
AnchorPoint: "cedilla" 594 0 basechar 0
AnchorPoint: "bottom" 1246 0 basechar 0
AnchorPoint: "top" 1044 1400 basechar 0
LayerCount: 2
Fore
SplineSet
1414 648 m 2
 694 648 l 1
 694 678 l 1
 1354 678 l 2
 1506 678 1614 796 1614 1024 c 0
 1614 1252 1506 1370 1354 1370 c 2
 702 1370 l 1
 702 1400 l 1
 1414 1400 l 2
 1776 1400 2054 1284 2054 1024 c 0
 2054 764 1776 648 1414 648 c 2
404 1400 m 1
 806 1400 l 1
 806 0 l 1
 404 0 l 1
 404 1400 l 1
80 1380 m 1
 80 1400 l 1
 404 1400 l 1
 404 1225 l 17
 404 1280 376 1296 276 1335 c 0
 211 1361 161 1371 80 1380 c 1
80 20 m 1
 161 29 211 39 276 65 c 0
 376 104 404 120 404 175 c 9
 404 0 l 1
 80 0 l 1
 80 20 l 1
1130 20 m 1
 1130 0 l 1
 806 0 l 1
 806 175 l 17
 806 120 834 104 934 65 c 0
 999 39 1049 29 1130 20 c 1
1128 668 m 1
 1178 668 l 1
 1346.44921875 596.009765625 1541.5 575 1727 575 c 1
 1982 160 l 2
 2004.94238281 122.662109375 2042.52441406 101.540039062 2079.70800781 79 c 0
 2122.63476562 52.978515625 2187.97558594 20 2242 20 c 2
 2300 20 l 1
 2300 0 l 1
 2090 0 l 1
 1620 0 l 1
 1564.91796875 22.7060546875 1521.09570312 67.8671875 1457.43652344 173.084960938 c 2
 1259.64453125 500 l 2
 1219.38867188 566.536132812 1173.50585938 632.751953125 1128 668 c 1
EndSplineSet
EndChar

StartChar: V
Encoding: 86 86 14
GlifName: V_
Width: 2290
Flags: HMW
AnchorPoint: "bottom" 1231 0 basechar 0
AnchorPoint: "top" 1234 1400 basechar 0
LayerCount: 2
Back
SplineSet
2240 1380 m 1
 2200 1380 l 2
 2144.265625 1380 2081.99121094 1290.09179688 2006.953125 1204 c 0
 1933.03710938 1119.1953125 1867.62890625 1028.85351562 1847 996 c 2
 1846.97851562 996.20703125 l 1
 1230 -30 l 1
 1230 20 l 1
 1819.83300781 1003.18359375 l 2
 1856.40429688 1064.14453125 1817.10644531 1139.28808594 1767.29199219 1212 c 0
 1711.84960938 1292.92675781 1674.45605469 1343.23339844 1639.2578125 1366 c 0
 1629.20703125 1372.50097656 1613 1380 1584 1380 c 2
 1540 1380 l 1
 1540 1400 l 1
 2240 1400 l 1
 2240 1380 l 1
1470 399 m 1
 1230 -30 l 1
 368 1240 l 2
 339 1284 318.236328125 1299.76660156 280.291992188 1321 c 0
 237.365234375 1345.02148438 172.024414062 1380 108 1380 c 2
 50 1380 l 1
 50 1400 l 1
 260 1400 l 1
 760 1400 l 1
 884.666992188 1400 1009.33300781 1400 1134 1400 c 1
 1134 1380 l 1
 1110 1380 l 2
 1045.97558594 1380 980.365234375 1345.49707031 937.708007812 1321 c 0
 882.682617188 1289.40039062 870.893554688 1257.98535156 892.563476562 1226.91503906 c 2
 1470 399 l 1
EndSplineSet
Fore
SplineSet
2240 1380 m 1
 2200 1380 l 2
 2144.265625 1380 2081.99121094 1290.09179688 2006.953125 1204 c 0
 1933.03710938 1119.1953125 1867.62890625 1028.85351562 1847 996 c 2
 1846.97851562 996.20703125 l 1
 1230 -30 l 1
 1230 20 l 1
 1819.83300781 1003.18359375 l 2
 1856.40429688 1064.14453125 1817.10644531 1139.28808594 1767.29199219 1212 c 0
 1711.84960938 1292.92675781 1674.45605469 1343.23339844 1639.2578125 1366 c 0
 1629.20703125 1372.50097656 1613 1380 1584 1380 c 2
 1540 1380 l 1
 1540 1400 l 1
 2240 1400 l 1
 2240 1380 l 1
1450 369 m 1
 1230 -30 l 1
 368 1240 l 2
 339 1284 318.236328125 1299.76660156 280.291992188 1321 c 0
 237.365234375 1345.02148438 172.024414062 1380 108 1380 c 2
 50 1380 l 1
 50 1400 l 1
 260 1400 l 1
 710 1400 l 1
 834.666992188 1400 959.333007812 1400 1084 1400 c 1
 1084 1380 l 1
 1060 1380 l 2
 995.975585938 1380 930.365234375 1345.49707031 887.708007812 1321 c 0
 832.682617188 1289.40039062 820.893554688 1257.98535156 842.563476562 1226.91503906 c 2
 1450 369 l 1
EndSplineSet
EndChar

StartChar: M
Encoding: 77 77 15
GlifName: M_
Width: 2600
Flags: HMW
AnchorPoint: "bottom" 1176 0 basechar 0
AnchorPoint: "top" 1234 1400 basechar 0
LayerCount: 2
Fore
SplineSet
611 23 m 2
 670 20 l 1
 670 0 l 1
 390 0 l 1
 390 335 l 1
 390 314.795898438 394.213867188 301.254882812 400.956054688 286 c 0
 420.643554688 241.453125 475.299804688 154.251953125 497.708007812 122 c 0
 535.139648438 68.1240234375 564.247070312 25.376953125 611 23 c 2
139 23 m 2
 185.752929688 25.376953125 214.860351562 68.1240234375 252.291992188 122 c 0
 274.700195312 154.251953125 329.356445312 241.453125 349.043945312 286 c 0
 355.786132812 301.254882812 360 314.795898438 360 335 c 1
 360 0 l 1
 80 0 l 1
 80 20 l 1
 139 23 l 2
1840 1400 m 1
 1875 1400 l 1
 1180 0 l 1
 1180 80 l 1
 1840 1400 l 1
730 1400 m 1
 1380 420 l 1
 1180 0 l 1
 255 1400 l 1
 390 1400 l 1
 730 1400 l 1
1560 20 m 1
 2520 20 l 1
 2520 0 l 1
 2200 0 1880 0 1560 0 c 1
 1560 20 l 1
2520 1400 m 1
 2520 1380 l 1
 2240 1380 l 1
 2240 0 l 1
 1840 0 l 1
 1840 1400 l 1
 2520 1400 l 1
390 1400 m 1
 390 0 l 1
 360 0 l 1
 360 1400 l 1
 390 1400 l 1
80 1380 m 1
 80 1400 l 1
 290 1400 l 1
 290 1380 l 1
 80 1380 l 1
360 1380 m 1
 360 1240 l 17
 330 1280 310.236328125 1299.76660156 272.291992188 1321 c 0
 229.365234375 1345.02148438 164.024414062 1380 100 1380 c 9
 360 1380 l 1
2240 1380 m 1
 2498 1380 l 17
 2436.97558594 1380 2380.63476562 1352.02148438 2337.70800781 1326 c 0
 2300.52441406 1303.45996094 2240 1265 2240 1225 c 9
 2240 1380 l 1
1840 20 m 1
 1582 20 l 17
 1643.02441406 20 1699.36523438 47.978515625 1742.29199219 74 c 0
 1779.47558594 96.5400390625 1840 135 1840 175 c 9
 1840 20 l 1
2240 20 m 1
 2240 175 l 17
 2240 135 2300.52441406 96.5400390625 2337.70800781 74 c 0
 2380.63476562 47.978515625 2436.97558594 20 2498 20 c 9
 2240 20 l 1
EndSplineSet
EndChar

StartChar: W
Encoding: 87 87 16
GlifName: W_
Width: 3160
Flags: HMW
AnchorPoint: "bottom" 1646 0 basechar 0
AnchorPoint: "top" 1704 1400 basechar 0
LayerCount: 2
Back
SplineSet
1866 1400 m 1
 1866 1350 l 1
 1190 -30 l 1
 1190 20 l 1
 1866 1400 l 1
1406 424 m 1
 1190 -30 l 1
 368 1240 l 2
 339 1284 318.236328125 1299.76660156 280.291992188 1321 c 0
 237.365234375 1345.02148438 172.024414062 1380 108 1380 c 2
 50 1380 l 1
 50 1400 l 1
 260 1400 l 1
 760 1400 l 1
 884.666992188 1400 1009.33300781 1400 1134 1400 c 1
 1134 1380 l 1
 1110 1380 l 2
 1045.97558594 1380 980.365234375 1345.49707031 937.708007812 1321 c 0
 882.682617188 1289.40039062 870.893554688 1257.98535156 892.563476562 1226.91503906 c 2
 1406 424 l 1
3130 1380 m 1
 3090 1380 l 2
 3034.265625 1380 2971.99121094 1290.09179688 2896.953125 1204 c 0
 2823.03710938 1119.1953125 2757.62890625 1028.85351562 2737 996 c 2
 2736.97851562 996.20703125 l 1
 2220 -30 l 1
 2220 20 l 1
 2709.83300781 1003.18359375 l 2
 2746.40429688 1064.14453125 2707.10644531 1139.28808594 2657.29199219 1212 c 0
 2601.84960938 1292.92675781 2564.45605469 1343.23339844 2529.2578125 1366 c 0
 2519.20703125 1372.50097656 2503 1380 2474 1380 c 2
 2430 1380 l 1
 2430 1400 l 1
 3130 1400 l 1
 3130 1380 l 1
1866 1400 m 1
 2440 430 l 1
 2220 -30 l 1
 1631 890 l 1
 1866 1400 l 1
EndSplineSet
Fore
SplineSet
1816 1400 m 1
 1816 1350 l 1
 1140 -30 l 1
 1140 20 l 1
 1816 1400 l 1
1336 384 m 1
 1140 -30 l 1
 368 1240 l 2
 339 1284 318.236328125 1299.76660156 280.291992188 1321 c 0
 237.365234375 1345.02148438 172.024414062 1380 108 1380 c 2
 50 1380 l 1
 50 1400 l 1
 260 1400 l 1
 710 1400 l 1
 834.666992188 1400 959.333007812 1400 1084 1400 c 1
 1084 1380 l 1
 1060 1380 l 2
 995.975585938 1380 930.365234375 1345.49707031 887.708007812 1321 c 0
 832.682617188 1289.40039062 820.893554688 1257.98535156 842.563476562 1226.91503906 c 2
 1336 384 l 1
3080 1380 m 1
 3040 1380 l 2
 2984.265625 1380 2921.99121094 1290.09179688 2846.953125 1204 c 0
 2773.03710938 1119.1953125 2707.62890625 1028.85351562 2687 996 c 2
 2686.97851562 996.20703125 l 1
 2170 -30 l 1
 2170 20 l 1
 2659.83300781 1003.18359375 l 2
 2696.40429688 1064.14453125 2657.10644531 1139.28808594 2607.29199219 1212 c 0
 2551.84960938 1292.92675781 2514.45605469 1343.23339844 2479.2578125 1366 c 0
 2469.20703125 1372.50097656 2453 1380 2424 1380 c 2
 2380 1380 l 1
 2380 1400 l 1
 3080 1400 l 1
 3080 1380 l 1
1816 1400 m 1
 2370 390 l 1
 2170 -30 l 1
 1601 930 l 1
 1816 1400 l 1
EndSplineSet
EndChar

StartChar: N
Encoding: 78 78 17
GlifName: N_
Width: 2154
Flags: HMW
AnchorPoint: "bottom" 1107 0 basechar 0
AnchorPoint: "top" 1135 1400 basechar 0
LayerCount: 2
Fore
SplineSet
671 23 m 2
 730 20 l 1
 730 0 l 1
 450 0 l 1
 450 335 l 1
 450 314.795898438 454.213867188 301.254882812 460.956054688 286 c 0
 480.643554688 241.453125 535.299804688 154.251953125 557.708007812 122 c 0
 595.139648438 68.1240234375 624.247070312 25.376953125 671 23 c 2
199 23 m 2
 245.752929688 25.376953125 274.860351562 68.1240234375 312.291992188 122 c 0
 334.700195312 154.251953125 389.356445312 241.453125 409.043945312 286 c 0
 415.786132812 301.254882812 420 314.795898438 420 335 c 1
 420 0 l 1
 140 0 l 1
 140 20 l 1
 199 23 l 2
1583 1377 m 2
 1524 1380 l 1
 1524 1400 l 1
 1804 1400 l 1
 1804 1065 l 1
 1804 1085.20410156 1799.78613281 1098.74511719 1793.04394531 1114 c 0
 1773.35644531 1158.546875 1718.70019531 1245.74804688 1696.29199219 1278 c 0
 1658.86035156 1331.87597656 1629.75292969 1374.62304688 1583 1377 c 2
2055 1377 m 2
 2008.24707031 1374.62304688 1979.13964844 1331.87597656 1941.70800781 1278 c 0
 1919.29980469 1245.74804688 1864.64355469 1158.546875 1844.95605469 1114 c 0
 1838.21386719 1098.74511719 1834 1085.20410156 1834 1065 c 1
 1834 1400 l 1
 2114 1400 l 1
 2114 1380 l 1
 2055 1377 l 2
1804 0 m 1025
1804 0 m 1
 1804 1400 l 1
 1834 1400 l 1
 1834 0 l 1
 1804 0 l 1
760 1400 m 1
 1834 450 l 1
 1834 -90 l 1
 185 1400 l 1
 450 1400 l 1
 760 1400 l 1
450 1400 m 1
 450 0 l 1
 420 0 l 1
 420 1400 l 1
 450 1400 l 1
80 1380 m 1
 80 1400 l 1
 290 1400 l 1
 290 1380 l 1
 80 1380 l 1
420 1380 m 1
 420 1184 l 17
 272.291992188 1301 l 2
 234 1332 164.024414062 1380 100 1380 c 9
 420 1380 l 1
EndSplineSet
EndChar

StartChar: X
Encoding: 88 88 19
GlifName: X_
Width: 2350
Flags: HMW
AnchorPoint: "bottom" 1086 0 basechar 0
AnchorPoint: "top" 1184 1400 basechar 0
LayerCount: 2
Fore
SplineSet
1102 631 m 1
 704.563476562 283.084960938 l 2
 686.348632812 266.799804688 737.436523438 181.198242188 782.708007812 134 c 0
 841.8125 72.380859375 921.975585938 24 986 20 c 1
 986 0 l 1
 482 0 l 1
 432 0 l 1
 212 0 l 1
 212 20 l 1
 248.024414062 24 374.221679688 78.845703125 462.291992188 135 c 0
 538.0078125 183.27734375 630.133789062 252.319335938 681 300 c 2
 1102 669 l 1
 1102 631 l 1
1084 769 m 1
 1551.43652344 1186.91503906 l 2
 1569.65136719 1203.20019531 1538.56347656 1258.80175781 1493.29199219 1306 c 0
 1434.1875 1367.61914062 1404.02441406 1376 1340 1380 c 1
 1340 1400 l 1
 1704 1400 l 1
 1754 1400 l 1
 1974 1400 l 1
 1974 1380 l 1
 1937.97558594 1376 1863.82714844 1337.49902344 1783.70800781 1295 c 0
 1716.40820312 1259.30078125 1625.86621094 1217.68066406 1575 1170 c 2
 1084 731 l 1
 1084 769 l 1
1942 160 m 2
 1977.19140625 122.76953125 2030.29589844 92.37890625 2089.70800781 64 c 0
 2162.7109375 29.1298828125 2195.97558594 25 2270 20 c 1
 2270 0 l 1
 2060 0 l 1
 1550 0 l 1
 1186 0 l 1
 1186 20 l 1
 1270.02441406 22 1332.02734375 50.7421875 1372.29199219 79 c 0
 1417.31738281 110.599609375 1442.57421875 146.491210938 1417.43652344 173.084960938 c 2
 408 1241 l 2
 372.80859375 1278.23046875 319.704101562 1308.62109375 260.291992188 1337 c 0
 187.2890625 1371.87011719 154.024414062 1376 80 1381 c 1
 80 1401 l 1
 290 1401 l 1
 800 1401 l 1
 1164 1401 l 1
 1164 1381 l 1
 1079.97558594 1379 1017.97265625 1350.2578125 977.708007812 1322 c 0
 932.682617188 1290.40039062 907.42578125 1254.50878906 932.563476562 1227.91503906 c 2
 1942 160 l 2
EndSplineSet
EndChar

StartChar: K
Encoding: 75 75 20
GlifName: K_
Width: 2457
Flags: HMW
AnchorPoint: "cedilla" 1226 0 basechar 0
AnchorPoint: "bottom" 1226 0 basechar 0
AnchorPoint: "top" 1174 1400 basechar 0
LayerCount: 2
Fore
SplineSet
721 479 m 1
 1658.43652344 1226.91503906 l 2
 1689.30078125 1251.54003906 1656.02050781 1286.42675781 1610.29199219 1318 c 0
 1568.45507812 1346.88671875 1511.02441406 1371 1427 1380 c 1
 1427 1400 l 1
 2061 1400 l 1
 2061 1380 l 1
 2014.97558594 1376 1970.65039062 1357.83007812 1890.70800781 1325 c 0
 1830.57617188 1300.30566406 1736.77539062 1253.51074219 1682 1210 c 2
 721 441 l 1
 721 479 l 1
1130 20 m 1
 1130 0 l 1
 806 0 l 1
 806 175 l 17
 806 120 834 104 934 65 c 0
 999 39 1049 29 1130 20 c 1
80 20 m 1
 161 29 211 39 276 65 c 0
 376 104 404 120 404 175 c 9
 404 0 l 1
 80 0 l 1
 80 20 l 1
80 1380 m 1
 80 1400 l 1
 404 1400 l 1
 404 1225 l 17
 404 1280 376 1296 276 1335 c 0
 211 1361 161 1371 80 1380 c 1
1130 1380 m 1
 1049 1371 999 1361 934 1335 c 0
 834.340820312 1295.13671875 806 1280 806 1225 c 9
 806 1400 l 1
 1130 1400 l 1
 1130 1380 l 1
404 1400 m 1
 806 1400 l 1
 806 0 l 1
 404 0 l 1
 404 1400 l 1
997 681 m 1
 1337 960 l 1
 2079 160 l 2
 2113.84960938 122.42578125 2167.29589844 92.37890625 2226.70800781 64 c 0
 2299.7109375 29.1298828125 2332.97558594 25 2407 20 c 1
 2407 0 l 1
 2197 0 l 1
 1657 0 l 1
 1293 0 l 1
 1293 20 l 1
 1377.02441406 22 1439.02734375 50.7421875 1479.29199219 79 c 0
 1524.31738281 110.599609375 1550.81347656 147.684570312 1524.43652344 173.084960938 c 2
 997 681 l 1
EndSplineSet
EndChar

StartChar: Y
Encoding: 89 89 21
GlifName: Y_
Width: 2394
Flags: HMW
AnchorPoint: "bottom" 1286 0 basechar 0
AnchorPoint: "top" 1344 1400 basechar 0
LayerCount: 2
Fore
SplineSet
1835 20 m 1
 1835 0 l 1
 1511 0 l 1
 1511 175 l 17
 1511 120 1539 104 1639 65 c 0
 1704 39 1754 29 1835 20 c 1
757 20 m 1
 838 29 888 39 953 65 c 0
 1053 104 1081 120 1081 175 c 9
 1081 0 l 1
 757 0 l 1
 757 20 l 1
1081 490 m 1
 1511 610 l 1
 1511 0 l 1
 1081 0 l 1
 1081 490 l 1
1490 628 m 1
 1966 1187 l 2
 1982 1206 1923 1259 1878 1306 c 0
 1819 1368 1739 1376 1675 1380 c 5
 1675 1400 l 1
 2139 1400 l 1
 2189 1400 l 1
 2399 1400 l 1
 2399 1380 l 1
 2363 1376 2279 1337 2199 1295 c 0
 2132 1259 2035 1223 1990 1170 c 2
 1511 610 l 1
 1490 628 l 1
1511 610 m 1
 1081 490 l 1
 378 1240 l 2
 343 1277 289 1308 230 1336 c 0
 157 1371 124 1375 50 1380 c 1
 50 1400 l 1
 260 1400 l 1
 770 1400 l 1
 1134 1400 l 1
 1134 1380 l 1
 1050 1378 988 1349 948 1321 c 0
 903 1289 877 1253 903 1227 c 2
 1511 610 l 1
EndSplineSet
EndChar

StartChar: B
Encoding: 66 66 22
GlifName: B_
Width: 2169
Flags: HMW
AnchorPoint: "bottom" 1026 0 basechar 0
AnchorPoint: "top" 1064 1400 basechar 0
LayerCount: 2
Fore
SplineSet
80 20 m 1
 161.024414062 29 211.026367188 39.421875 276.291992188 65 c 0
 376.711914062 104.35546875 404 120 404 175 c 9
 404 0 l 1
 80 0 l 1
 80 20 l 1
80 1380 m 1
 80 1400 l 1
 404 1400 l 1
 404 1225 l 17
 404 1280 376.711914062 1295.64453125 276.291992188 1335 c 0
 211.026367188 1360.578125 161.024414062 1371 80 1380 c 1
1439 0 m 2
 806 0 l 1
 806 30 l 1
 1299 30 l 2
 1450.79003906 30 1579 102 1579 380 c 0
 1579 658 1451 720 1299 720 c 2
 744 720 l 1
 744 740 l 1
 1439 740 l 2
 1751 740 2089 610 2089 380 c 0
 2089 130 1770.625 0 1439 0 c 2
404 1400 m 1
 806 1400 l 1
 806 0 l 1
 404 0 l 1
 404 1400 l 1
1361 730 m 2
 744 730 l 1
 744 750 l 1
 1319 750 l 2
 1461 750 1569 830 1569 1068 c 0
 1569 1306 1460.87597656 1370 1319 1370 c 2
 806 1370 l 1
 806 1400 l 1
 1351 1400 l 2
 1720.38476562 1400 2011 1310 2011 1070 c 0
 2011 850 1753 730 1361 730 c 2
EndSplineSet
EndChar

StartChar: Z
Encoding: 90 90 23
GlifName: Z_
Width: 1962
Flags: HMW
AnchorPoint: "bottom" 956 0 basechar 0
AnchorPoint: "top" 954 1400 basechar 0
LayerCount: 2
Fore
SplineSet
1806 1370 m 1
 672 30 l 1
 120 30 l 1
 1254 1370 l 1
 1806 1370 l 1
178 870 m 1
 158 870 l 1
 158 1400 l 1
 1806 1400 l 1
 1806 1370 l 1
 790 1370 l 2
 604.1328125 1370 530.659179688 1274.50488281 418 1153.71875 c 0
 327.456333684 1056.64348871 226.571289062 940.954101562 178 870 c 1
120 0 m 1
 120 30 l 1
 1250 30 l 2
 1388.54101562 30 1492.24235606 169.655545638 1576 270.50390625 c 0
 1663.19921875 375.49609375 1732.66601562 495.376953125 1792 580 c 1
 1812 580 l 1
 1812 0 l 1
 120 0 l 1
EndSplineSet
EndChar

StartChar: J
Encoding: 74 74 25
GlifName: J_
Width: 1709
Flags: HMW
AnchorPoint: "bottom" 595 0 basechar 0
AnchorPoint: "top" 976 1400 basechar 0
LayerCount: 2
Back
SplineSet
599 1380 m 1
 599 1400 l 1
 923 1400 l 1
 923 1225 l 17
 923 1280 895 1296 795 1335 c 0
 730 1361 680 1371 599 1380 c 1
1649 1380 m 1
 1568 1371 1518 1361 1453 1335 c 0
 1353 1296 1325 1280 1325 1225 c 9
 1325 1400 l 1
 1649 1400 l 1
 1649 1380 l 1
923 1400 m 1
 1325 1400 l 1
 1325 354 l 2
 1325 327.868164062 1313.50097656 318.805664062 1290.27832031 286 c 0
 1141.1953125 75.392578125 877.138671875 -61 602 -61 c 0
 348 -61 60 130 60 330 c 0
 60 474 173 575 304 575 c 0
 424 575 547 485 547 343 c 0
 547 227 473 178 344 178 c 0
 299 178 270 169 270 135 c 0
 270 122 278 104 304 78 c 0
 375 7 468 -31 597 -31 c 0
 770 -31 923 101 923 380 c 2
 923 1400 l 1
EndSplineSet
Fore
SplineSet
599 1380 m 1
 599 1400 l 1
 923 1400 l 1
 923 1225 l 17
 923 1280 895 1296 795 1335 c 0
 730 1361 680 1371 599 1380 c 1
1649 1380 m 1
 1568 1371 1518 1361 1453 1335 c 0
 1353 1296 1325 1280 1325 1225 c 9
 1325 1400 l 1
 1649 1400 l 1
 1649 1380 l 1
923 1400 m 1
 1325 1400 l 1
 1325 359 l 2
 1325 340.868164062 1318.61230469 325.46484375 1312.27832031 316 c 0
 1148.63769531 71.4931640625 877.138671875 -61 602 -61 c 0
 348 -61 60 130 60 330 c 0
 60 474 173 575 304 575 c 0
 424 575 547 485 547 343 c 0
 547 227 473 168 344 168 c 0
 299 168 270 157 270 133 c 0
 270 120 276.764648438 104.7421875 302 78 c 0
 369 7 468 -31 597 -31 c 0
 770 -31 923 101 923 380 c 2
 923 1400 l 1
EndSplineSet
EndChar

StartChar: P
Encoding: 80 80 49
GlifName: P_
Width: 2134
Flags: HMW
AnchorPoint: "bottom" 596 0 basechar 0
AnchorPoint: "top" 1074 1400 basechar 0
LayerCount: 2
Fore
SplineSet
1130 20 m 1
 1130 0 l 1
 806 0 l 1
 806 175 l 17
 806 120 834 104 934 65 c 0
 999 39 1049 29 1130 20 c 1
80 20 m 1
 161 29 211 39 276 65 c 0
 376 104 404 120 404 175 c 9
 404 0 l 1
 80 0 l 1
 80 20 l 1
80 1380 m 1
 80 1400 l 1
 404 1400 l 1
 404 1225 l 17
 404 1280 376 1296 276 1335 c 0
 211 1361 161 1371 80 1380 c 1
404 1400 m 1
 806 1400 l 1
 806 0 l 1
 404 0 l 1
 404 1400 l 1
1414 628 m 2
 694 628 l 1
 694 658 l 1
 1354 658 l 2
 1506 658 1614 786 1614 1014 c 0
 1614 1242 1506 1370 1354 1370 c 2
 702 1370 l 1
 702 1400 l 1
 1414 1400 l 2
 1776 1400 2054 1274 2054 1014 c 0
 2054 754 1776 628 1414 628 c 2
EndSplineSet
EndChar

StartChar: U
Encoding: 85 85 50
GlifName: U_
Width: 2214
Flags: HMW
AnchorPoint: "cedilla" 1196 0 basechar 0
AnchorPoint: "bottom" 1196 0 basechar 0
AnchorPoint: "top" 1234 1400 basechar 0
LayerCount: 2
Fore
SplineSet
1603 1377 m 2
 1544 1380 l 1
 1544 1400 l 1
 1824 1400 l 1
 1824 1065 l 1
 1824 1085.20410156 1819.78613281 1098.74511719 1813.04394531 1114 c 0
 1793.35644531 1158.546875 1738.70019531 1245.74804688 1716.29199219 1278 c 0
 1678.86035156 1331.87597656 1649.75292969 1374.62304688 1603 1377 c 2
1130 1380 m 1
 1049 1371 999 1361 934 1335 c 0
 834.340820312 1295.13671875 806 1280 806 1225 c 9
 806 1400 l 1
 1130 1400 l 1
 1130 1380 l 1
80 1380 m 1
 80 1400 l 1
 404 1400 l 1
 404 1225 l 17
 404 1280 376.711914062 1295.64453125 276.291992188 1335 c 0
 211.026367188 1360.578125 161.024414062 1371 80 1380 c 1
2075 1377 m 2
 2028.24707031 1374.62304688 1999.13964844 1331.87597656 1961.70800781 1278 c 0
 1939.29980469 1245.74804688 1884.64355469 1158.546875 1864.95605469 1114 c 0
 1858.21386719 1098.74511719 1854 1085.20410156 1854 1065 c 1
 1854 1400 l 1
 2134 1400 l 1
 2134 1380 l 1
 2075 1377 l 2
1824 1400 m 1
 1854 1400 l 1
 1854 510 l 2
 1854 180 1605 -28 1169 -28 c 0
 663 -28 404 164 404 510 c 2
 404 1400 l 1
 806 1400 l 1
 806 480 l 2
 806 216 991 17 1289 17 c 0
 1557 17 1824 186 1824 510 c 2
 1824 1400 l 1
EndSplineSet
EndChar

StartChar: S
Encoding: 83 83 51
GlifName: S_
Width: 1838
Flags: HMW
AnchorPoint: "cedilla" 911 0 basechar 0
AnchorPoint: "bottom" 911 0 basechar 0
AnchorPoint: "top" 924 1400 basechar 0
LayerCount: 2
Fore
SplineSet
1618 1440 m 1
 1638 1440 l 1
 1638 988 l 1
 1618 988 l 1
 1438 1206 1067 1390 769 1390 c 0
 477 1390 330 1298 330 1190 c 0
 330 1038 558.667383615 972.034247829 1016 930 c 0
 1560 880 1788 722 1788 440 c 0
 1788 130 1477 -28 1115 -28 c 0
 880 -28 664.916992188 43.8447265625 474 137 c 0
 458.721679688 144.455078125 435 155 406 155 c 0
 321 155 221 77 138 0 c 1
 120 0 l 1
 120 490 l 1
 140 490 l 1
 330 192 727 2 1115 2 c 0
 1337 2 1570 62 1570 250 c 0
 1570 424 1350 505 910 545 c 0
 367.457526026 594.322043089 80 681 80 1000 c 0
 80 1280 377 1420 769 1420 c 0
 942 1420 1136 1359 1270 1295 c 0
 1294 1283 1328 1276 1351 1276 c 0
 1457 1276 1545 1378 1618 1440 c 1
EndSplineSet
EndChar

StartChar: S
Encoding: 83 83 52
GlifName: S_
Width: 1908
Flags: HMW
AnchorPoint: "cedilla" 971 0 basechar 0
AnchorPoint: "bottom" 971 0 basechar 0
AnchorPoint: "top" 984 1400 basechar 0
LayerCount: 2
Fore
SplineSet
1678 1440 m 1
 1698 1440 l 1
 1698 988 l 1
 1678 988 l 1
 1498 1206 1127 1390 829 1390 c 0
 537 1390 390 1298 390 1190 c 0
 390 1038 618.666992188 962.034179688 1076 920 c 0
 1620 870 1848 712 1848 430 c 0
 1848 120 1537 -28 1175 -28 c 0
 940 -28 724.916992188 43.8447265625 534 137 c 0
 518.721679688 144.455078125 495 155 466 155 c 0
 381 155 281 77 198 0 c 1
 180 0 l 1
 180 490 l 1
 200 490 l 1
 390 192 787 2 1175 2 c 0
 1397 2 1630 62 1630 250 c 0
 1630 424 1410 515 970 555 c 4
 427.458007812 604.322265625 140 691 140 1010 c 0
 140 1290 437 1420 829 1420 c 0
 1002 1420 1196 1359 1330 1295 c 0
 1354 1283 1388 1276 1411 1276 c 0
 1517 1276 1605 1378 1678 1440 c 1
EndSplineSet
EndChar

StartChar: period
Encoding: 46 46 53
GlifName: period
Width: 880
Flags: HMW
LayerCount: 2
Fore
SplineSet
200 220 m 0
 200 352 308 460 440 460 c 0
 572 460 680 352 680 220 c 0
 680 88 572 -20 440 -20 c 0
 308 -20 200 88 200 220 c 0
EndSplineSet
EndChar

StartChar: comma
Encoding: 44 44 54
GlifName: comma
Width: 918
Flags: HMW
LayerCount: 2
Fore
SplineSet
204 218 m 0
 204 344 312 456 458 456 c 0
 606 456 718 334 718 148 c 0
 718 -123 510 -312 200 -312 c 1
 200 -292 l 5
 438 -282 575 -128 575 1 c 0
 575 6 573 18 561 18 c 4
 543.87890625 18 519 -20 440 -20 c 0
 294 -20 204 92 204 218 c 0
EndSplineSet
EndChar

StartChar: exclam
Encoding: 33 33 58
GlifName: exclam
Width: 880
VWidth: 0
Flags: HMW
LayerCount: 2
Fore
SplineSet
200 220 m 0
 200 352 308 460 440 460 c 0
 572 460 680 352 680 220 c 0
 680 88 572 -20 440 -20 c 0
 308 -20 200 88 200 220 c 0
140 1400 m 1
 740 1400 l 1
 740 1370 l 5
 540 1140 455 920 455 560 c 1
 425 560 l 1
 425 920 340 1090 140 1370 c 1
 140 1400 l 1
EndSplineSet
EndChar

StartChar: quotesingle
Encoding: 39 39 59
GlifName: quotesingle
Width: 840
Flags: HMW
LayerCount: 2
Fore
SplineSet
638 1192 m 28
 618 1042 435 966 435 746 c 5
 405 746 l 5
 405 966 222 1042 202 1192 c 28
 200 1206 200 1216 200 1228 c 4
 200 1346 302 1430 420 1430 c 4
 538 1430 640 1346 640 1228 c 4
 640 1216 640 1206 638 1192 c 28
EndSplineSet
EndChar

StartChar: numbersign
Encoding: 35 35 60
GlifName: numbersign
Width: 1210
VWidth: 0
Flags: HMW
LayerCount: 2
Fore
SplineSet
120 955 m 261
 120 985 l 261
 1150 985 l 261
 1150 955 l 261
 120 955 l 261
60 435 m 257
 60 465 l 257
 1090 465 l 257
 1090 435 l 257
 60 435 l 257
930 1400 m 257
 960 1400 l 257
 700 0 l 257
 670 0 l 257
 930 1400 l 257
510 1400 m 257
 540 1400 l 257
 280 0 l 257
 250 0 l 257
 510 1400 l 257
EndSplineSet
EndChar

StartChar: hyphen
Encoding: 45 45 61
GlifName: hyphen
Width: 560
VWidth: 0
Flags: HMW
LayerCount: 2
Fore
SplineSet
40 450 m 261
 40 650 l 261
 520 650 l 261
 520 450 l 261
 40 450 l 261
EndSplineSet
EndChar

StartChar: dollar
Encoding: 36 36 62
GlifName: dollar
Width: 1666
Flags: HMW
LayerCount: 2
Fore
SplineSet
872 1500 m 1
 902 1500 l 1
 902 -190 l 1
 872 -190 l 1
 872 1500 l 1
702 1500 m 1
 732 1500 l 1
 732 -190 l 1
 702 -190 l 1
 702 1500 l 1
873 -28 m 1
 434 -28 80 74 80 298 c 0
 80 412 183 468 313 468 c 0
 433 468 528 390 528 290 c 0
 528 119.997070312 370 156.147460938 370 113 c 0
 370 54.53515625 616.01953125 2 873 2 c 1
 873 -28 l 1
817 1420 m 1
 1176 1420 1470 1318 1470 1114 c 0
 1470 1000 1377 934 1247 934 c 4
 1127 934 1022 1012 1022 1112 c 4
 1022 1282.00292969 1170 1255.85253906 1170 1299 c 0
 1170 1347.46484375 1063.98046875 1390 817 1390 c 1
 817 1420 l 1
817 1390 m 1
 525 1390 358 1298 358 1190 c 0
 358 1038 466.215820312 937.522460938 864 900 c 0
 1367.26171875 852.528320312 1616 722 1616 440 c 0
 1616 130 1235 -28 873 -28 c 1
 873 2 l 1
 1095 2 1388 62 1388 250 c 0
 1388 414 1207.52441406 460.075195312 768 505 c 0
 285.458007812 554.322265625 98 691 98 970 c 0
 98 1260 425 1420 817 1420 c 1
 817 1390 l 1
EndSplineSet
EndChar

StartChar: bar
Encoding: 124 124 63
GlifName: bar
Width: 608
VWidth: 0
Flags: HMW
LayerCount: 2
Fore
SplineSet
200 1560 m 257
 408 1560 l 257
 408 -440 l 257
 200 -440 l 257
 200 1560 l 257
EndSplineSet
EndChar

StartChar: zero
Encoding: 48 48 64
GlifName: zero
Width: 1960
Flags: HMW
LayerCount: 2
Fore
SplineSet
980 -20 m 0
 614 -20 160 256 160 700 c 0
 160 1144 634 1420 980 1420 c 0
 1326 1420 1800 1144 1800 700 c 0
 1800 256 1346 -20 980 -20 c 0
980 1390 m 0
 702 1390 630 1264 630 700 c 0
 630 136 682 0 980 0 c 0
 1278 0 1330 136 1330 700 c 0
 1330 1264 1278 1390 980 1390 c 0
EndSplineSet
EndChar

StartChar: one
Encoding: 49 49 65
GlifName: one
Width: 1496
VWidth: 2308
Flags: HMW
LayerCount: 2
Fore
SplineSet
1296 20 m 5
 1296 0 l 5
 972 0 l 5
 972 175 l 21
 972 120 999.288085938 104.35546875 1099.70800781 65 c 4
 1164.97363281 39.421875 1214.97558594 29 1296 20 c 5
246 20 m 5
 327.024414062 29 377.026367188 39.421875 442.291992188 65 c 4
 542.711914062 104.35546875 570 120 570 175 c 13
 570 0 l 5
 246 0 l 5
 246 20 l 5
200 1080 m 1
 972 1490 l 1
 972 0 l 1
 570 0 l 1
 570 1237 l 1
 200 1044 l 1
 200 1080 l 1
EndSplineSet
EndChar

StartChar: two
Encoding: 50 50 66
GlifName: two
Width: 1848
VWidth: 2308
Flags: HMW
LayerCount: 2
Fore
SplineSet
180 -20 m 257
 180 214.627929688 428.868164062 424 798 424 c 260
 1114.89355469 424 1230.23925781 240 1491 240 c 256
 1629 240 1678 312 1688 456 c 257
 1708 456 l 257
 1708 158.213867188 1590.83984375 -50 1221 -50 c 256
 758.452148438 -50 736.58203125 224 448 224 c 260
 326 224 210 160 200 -20 c 257
 180 -20 l 257
160 -20 m 1
 160 293.333007812 409.73046875 507.92578125 680 581.721679688 c 0
 1033.32617188 678.196289062 1168 765.755859375 1168 1030 c 0
 1168 1283 1032 1387 800 1387 c 0
 553.01953125 1387 327 1292.46484375 327 1224 c 0
 327 1215 330 1209.48730469 337 1209.48730469 c 0
 362.62890625 1209.48730469 390.025390625 1224 448 1224 c 0
 567 1224 675 1152 675 1022 c 0
 675 882 560 804 430 804 c 0
 300 804 177 890 177 1054 c 0
 177 1258 451 1420 810 1420 c 0
 1272 1420 1638 1261 1638 1001 c 0
 1638 709.842773438 1090.22363281 660.288085938 692 552.721679688 c 0
 422.95703125 480.048828125 190 280.043945312 190 -20 c 1
 160 -20 l 1
EndSplineSet
EndChar

StartChar: four
Encoding: 52 52 67
GlifName: four
Width: 1665
VWidth: 2308
Flags: HMW
LayerCount: 2
Fore
SplineSet
1545 244 m 1
 1538 275.024414062 1526.12207031 294.849609375 1500 350.291992188 c 0
 1476.98144531 399.1484375 1456 418 1420 418 c 9
 1565 418 l 1
 1565 244 l 1
 1545 244 l 1
1545 622 m 1
 1565 622 l 1
 1565 448 l 1
 1420 448 l 17
 1456 448 1476.98144531 466.8515625 1500 515.708007812 c 0
 1526.12207031 571.150390625 1538 590.975585938 1545 622 c 1
490 20 m 1
 571.024414062 29 621.026367188 39.421875 686.291992188 65 c 0
 786.711914062 104.35546875 814 120 814 175 c 9
 814 0 l 1
 490 0 l 1
 490 20 l 1
1540 20 m 1
 1540 0 l 1
 1216 0 l 1
 1216 175 l 17
 1216 120 1243.28808594 104.35546875 1343.70800781 65 c 0
 1408.97363281 39.421875 1458.97558594 29 1540 20 c 1
1216 418 m 1
 1216 0 l 1
 814 0 l 1
 814 418 l 1
 80 418 l 1
 80 576 l 1
 1216 1500 l 1
 1216 448 l 1
 1565 448 l 1
 1565 418 l 1
 1216 418 l 1
814 448 m 1
 814 1138 l 1
 286 708 l 1
 286 448 l 1
 814 448 l 1
EndSplineSet
EndChar

StartChar: slash
Encoding: 47 47 68
GlifName: slash
Width: 1330
VWidth: 0
Flags: HMW
LayerCount: 2
Fore
SplineSet
1220 1400 m 257
 150 0 l 261
 110 0 l 257
 1180 1400 l 257
 1220 1400 l 257
EndSplineSet
EndChar

StartChar: backslash
Encoding: 92 92 69
GlifName: backslash
Width: 1330
VWidth: 0
Flags: HMW
LayerCount: 2
Fore
SplineSet
110 1400 m 257
 150 1400 l 257
 1220 0 l 257
 1180 0 l 261
 110 1400 l 257
EndSplineSet
EndChar

StartChar: eight
Encoding: 56 56 70
GlifName: eight
Width: 1863
Flags: HMW
LayerCount: 2
Fore
SplineSet
850 642 m 1
 590 642 320 560 320 352 c 0
 320 104 640 2 950 2 c 1
 950 -28 l 1
 568 -28 170 82 170 352 c 0
 170 552 508 672 850 672 c 1
 850 642 l 1
914 1390 m 1
 582 1390 445 1308 445 1210 c 0
 445 1108 549.307617188 983.03125 1001 900 c 0
 1545 800 1693 652 1693 430 c 0
 1693 110 1362 -28 950 -28 c 1
 950 2 l 1
 1222 2 1465 72 1465 220 c 0
 1465 334 1315 380 885 485 c 0
 355.76953125 614.23046875 175 691 175 990 c 0
 175 1270 482 1420 914 1420 c 1
 914 1390 l 1
904 790 m 1
 1164 790 1444 822 1444 1070 c 0
 1444 1298 1234 1390 914 1390 c 1
 914 1420 l 1
 1256 1420 1584 1290 1584 1070 c 0
 1584 850 1246 760 904 760 c 1
 904 790 l 1
EndSplineSet
EndChar

StartChar: three
Encoding: 51 51 72
GlifName: three
Width: 1852
VWidth: 2308
Flags: HMW
LayerCount: 2
Back
SplineSet
1692 360 m 4
 1692 70 1164 -20 832 -20 c 4
 498 -20 100 93 100 328 c 4
 100 460 200 556 350 556 c 4
 461 556 597 477 597 345 c 4
 597 211 483 150 384 150 c 4
 316.318359375 150 306.017578125 172.7421875 288 172.7421875 c 4
 284 172.7421875 281 171.481445312 281 167 c 4
 281 97 519.6328125 15 752 15 c 4
 1020 15 1260 142 1260 360 c 4
 1260 588 1194 734 726 734 c 5
 726 754 l 5
 1308 754 1692 611 1692 360 c 4
726 744 m 5
 726 764 l 5
 944 764 1210 824 1210 1072 c 4
 1210 1310 980 1388 762 1388 c 4
 554.11328125 1388 325.931640625 1328.2734375 228.91015625 1215.88671875 c 5
 281.409179688 1249.80078125 350.71484375 1268 405 1268 c 4
 524 1268 618 1194 618 1074 c 4
 618 944 518 871 378 871 c 4
 237 871 149 963 149 1095 c 4
 149 1310 468 1418 842 1418 c 4
 1225 1418 1632 1303 1632 1082 c 4
 1632 852 1288 744 726 744 c 5
EndSplineSet
Fore
SplineSet
762 1383 m 1
 515.01953125 1383 319 1300.46484375 319 1266 c 0
 319 1259 322 1255.48730469 329 1255.48730469 c 0
 344.62890625 1255.48730469 362.025390625 1270 410 1270 c 0
 529 1270 627 1198 627 1068 c 0
 627 928 522 860 392 860 c 0
 262 860 139 946 139 1090 c 0
 139 1324 473 1418 842 1418 c 1
 762 1383 l 1
1692 360 m 4
 1692 70 1164 -20 832 -20 c 4
 448 -20 100 103 100 338 c 4
 100 470 200 556 350 556 c 4
 461 556 597 477 597 345 c 4
 597 211 483 150 384 150 c 4
 316.318359375 150 306.017578125 172.7421875 288 172.7421875 c 4
 284 172.7421875 281 171.481445312 281 167 c 4
 281 117 479.6328125 20 752 20 c 4
 1020 20 1260 142 1260 360 c 4
 1260 588 1194 734 726 734 c 5
 726 754 l 5
 1308 754 1692 611 1692 360 c 4
726 744 m 1
 726 764 l 1
 944 764 1210 824 1210 1072 c 0
 1210 1310 980 1383 762 1383 c 1
 842 1418 l 1
 1315 1418 1642 1293 1642 1072 c 0
 1642 842 1288 744 726 744 c 1
EndSplineSet
EndChar

StartChar: five
Encoding: 53 53 73
GlifName: five
Width: 1772
VWidth: 2308
Flags: HMW
LayerCount: 2
Fore
SplineSet
1652 390 m 5
 1652 100 1164 -20 832 -20 c 4
 448 -20 100 103 100 338 c 4
 100 470 200 556 350 556 c 4
 461 556 597 477 597 345 c 4
 597 211 483 150 384 150 c 4
 316.318359375 150 306.017578125 172.7421875 288 172.7421875 c 4
 284 172.7421875 281 171.481445312 281 167 c 4
 281 107 479.6328125 15 752 15 c 4
 1020 15 1220 172 1220 390 c 5
 1652 390 l 5
1400 1030 m 1
 297 1030 l 1
 297 674 l 1
 267 674 l 1
 267 1390 l 1
 1577 1390 l 1
 1400 1030 l 1
1220 390 m 1
 1220 659 1092 808 794 808 c 0
 589 808 404 750 315 674 c 1
 279 674 l 1
 341 758 582 849 864 849 c 0
 1226 849 1652 690 1652 390 c 1
 1220 390 l 1
EndSplineSet
EndChar

StartChar: six
Encoding: 54 54 74
GlifName: six
Width: 1860
VWidth: 2308
Flags: HMW
LayerCount: 2
Fore
SplineSet
1098 1390 m 1
 1078 1420 l 1
 1447 1420 1621 1298 1621 1144 c 0
 1621 1000 1508 934 1378 934 c 0
 1248 934 1133 1012 1133 1152 c 0
 1133 1317 1301 1301 1301 1344 c 0
 1301 1372 1225 1390 1098 1390 c 1
1340 400 m 0
 1340 734 1210 800 1032 800 c 0
 866 800 630 736 630 560 c 1
 600 560 l 1
 600 744 838 830 1032 830 c 0
 1324 830 1740 770 1740 430 c 4
 1740 110 1380 -20 1008 -20 c 0
 606 -20 170 190 170 670 c 0
 170 1116 474 1420 1078 1420 c 1
 1098 1390 l 1
 768 1390 620 1224 620 610 c 1
 630 560 l 1
 630 116 770 5 1008 5 c 0
 1206 5 1340 106 1340 400 c 0
EndSplineSet
EndChar

StartChar: seven
Encoding: 55 55 75
GlifName: seven
Width: 1635
VWidth: 2308
Flags: HMW
LayerCount: 2
Fore
SplineSet
165 944 m 261
 165 1178.62792969 423.868164062 1418 773 1418 c 256
 1069.89355469 1418 1113.23925781 1254 1334 1254 c 256
 1462 1254 1533 1336 1553 1400 c 257
 1573 1400 l 257
 1573 1242.21386719 1185.83984375 994 836 994 c 256
 613.452148438 994 531.58203125 1108 363 1108 c 256
 271 1108 195 1044 185 944 c 261
 165 944 l 261
160 804 m 1
 160 1400 l 1
 190 1400 l 1
 190 804 l 1
 160 804 l 1
561 292 m 0
 561 520 715.307617188 672.961914062 909 796 c 0
 1023.41601562 868.6796875 1565 1139 1565 1400 c 1
 1595 1400 l 1
 1595 1141 1217.89453125 960.766601562 1047 787 c 0
 942.905273438 681.155273438 895 562 895 444 c 0
 895 310 971 216 1171 246 c 1
 1171 112 1041 -20 863 -20 c 0
 683 -20 561 84 561 292 c 0
EndSplineSet
EndChar

StartChar: plus
Encoding: 43 43 76
GlifName: plus
Width: 1350
VWidth: 0
Flags: HMW
LayerCount: 2
Fore
SplineSet
180 420 m 257
 180 600 l 257
 1170 600 l 257
 1170 420 l 257
 180 420 l 257
570 1000 m 257
 770 1000 l 257
 770 20 l 257
 570 20 l 257
 570 1000 l 257
EndSplineSet
EndChar

StartChar: equal
Encoding: 61 61 77
GlifName: equal
Width: 1230
VWidth: 0
Flags: HMW
LayerCount: 2
Fore
SplineSet
130 230 m 257
 130 430 l 257
 1100 430 l 257
 1100 230 l 257
 130 230 l 257
130 580 m 257
 130 780 l 257
 1100 780 l 257
 1100 580 l 257
 130 580 l 257
EndSplineSet
EndChar

StartChar: percent
Encoding: 37 37 78
GlifName: percent
Width: 1922
VWidth: 0
Flags: HMW
LayerCount: 2
Fore
SplineSet
1516 1400 m 261
 446 0 l 261
 406 0 l 261
 1476 1400 l 261
 1516 1400 l 261
1030 340 m 260
 1030 528 1186 700 1466 700 c 260
 1726 700 1902 528 1902 340 c 260
 1902 152 1726 -20 1466 -20 c 260
 1186 -20 1030 152 1030 340 c 260
1362 340 m 260
 1362 168 1376 0 1466 0 c 260
 1556 0 1570 168 1570 340 c 260
 1570 512 1556 680 1466 680 c 260
 1376 680 1362 512 1362 340 c 260
20 1060 m 260
 20 1248 196 1420 456 1420 c 260
 716 1420 892 1248 892 1060 c 260
 892 872 716 700 456 700 c 260
 196 700 20 872 20 1060 c 260
352 1060 m 260
 352 888 366 720 456 720 c 260
 546 720 560 888 560 1060 c 260
 560 1232 546 1400 456 1400 c 260
 366 1400 352 1232 352 1060 c 260
EndSplineSet
EndChar

StartChar: ampersand
Encoding: 38 38 79
GlifName: ampersand
Width: 2222
Flags: HMW
LayerCount: 2
Fore
SplineSet
1341 409 m 1
 1568.43652344 696.915039062 l 2
 1592.2734375 727.090820312 1570.02050781 756.426757812 1524.29199219 788 c 0
 1482.45507812 816.88671875 1435.02441406 841 1351 850 c 1
 1351 870 l 1
 1985 870 l 1
 1985 850 l 1
 1938.97558594 846 1896.8359375 831.8984375 1814.70800781 805 c 0
 1754.57617188 785.305664062 1654.00097656 751.403320312 1596 680 c 2
 1345 371 l 1
 1341 409 l 1
698 816 m 1
 738 788 l 1
 628 774 490 678 490 504 c 0
 490 278 610 67 842 67 c 0
 1066 67 1196 272 1298 380 c 1
 1336 380 l 1
 1188 198 1048 -20 652 -20 c 0
 256 -20 100 144 100 370 c 0
 100 628 432 772 698 816 c 1
1080 848 m 9
 1050 878 l 1
 1198 929 1324 1036 1324 1174 c 0
 1324 1292 1186 1390 992 1390 c 0
 848 1390 796 1332 796 1260 c 0
 796 1160 860.027833893 1103.41271269 952 1020 c 2
 1500 523 l 2
 1603.93899938 428.734155674 1745 385 1840 385 c 0
 1933 385 2028 422 2092 502 c 1
 2106 470 2122 405 2122 330 c 0
 2122 97.953125 1892.49316406 -20 1721 -20 c 0
 1542 -20 1398 54 1278 167 c 1
 612 880 l 2
 554.380859375 941.685546875 495 996 495 1126 c 0
 495 1306 660 1420 992 1420 c 0
 1216 1420 1354 1314 1354 1174 c 0
 1354 1020 1252 934 1080 848 c 9
EndSplineSet
EndChar

StartChar: question
Encoding: 63 63 80
GlifName: question
Width: 1271
Flags: HMW
LayerCount: 2
Fore
SplineSet
593 1419 m 1
 573 1387 l 1
 326 1387 175 1286 175 1218 c 0
 175 1208 178 1205 184 1205 c 0
 223 1205 250 1238 337 1238 c 0
 432 1238 528 1183 528 1081 c 0
 528 981 443 903 303 903 c 0
 173 903 90 969 90 1103 c 0
 90 1257 234 1419 593 1419 c 1
344 220 m 0
 344 352 452 460 584 460 c 0
 716 460 824 352 824 220 c 0
 824 88 716 -20 584 -20 c 0
 452 -20 344 88 344 220 c 0
695 820 m 0
 771 864 809 964 809 1110 c 0
 809 1298 721 1387 573 1387 c 1
 593 1419 l 1
 925 1419 1191 1340 1191 1100 c 0
 1191 911 1019.88085938 884.150390625 836 832 c 0
 613.280273438 768.834960938 597 720.061597372 597 558 c 1
 565 558 l 1
 565 723.265625 578.902019458 752.957504194 695 820 c 0
EndSplineSet
EndChar

StartChar: parenleft
Encoding: 40 40 81
GlifName: parenleft
Width: 910
Flags: HMW
LayerCount: 2
Fore
SplineSet
890 -238 m 1
 880 -253 l 1
 394 -113 130 209 130 675 c 0
 130 1141 394 1423 880 1563 c 1
 890 1548 l 1
 662 1448 532 1059 532 675 c 4
 532 291 662 -138 890 -238 c 1
EndSplineSet
EndChar

StartChar: asterisk
Encoding: 42 42 83
GlifName: asterisk
Width: 1443
Flags: HMW
LayerCount: 2
Fore
SplineSet
715 849 m 0
 906 959 889 1138 1009 1230 c 0
 1020 1239 1029 1244 1039 1250 c 0
 1141 1309 1255 1280 1314 1178 c 0
 1373 1076 1341 963 1239 904 c 0
 1229 898 1220 893 1207 888 c 0
 1067 830 920 933 729 823 c 0
 538 713 555 534 435 442 c 0
 424 433 415 428 405 422 c 0
 303 363 189 392 130 494 c 0
 71 596 103 709 205 768 c 0
 215 774 224 779 237 784 c 0
 377 842 524 739 715 849 c 0
729 849 m 0
 920 739 1067 842 1207 784 c 0
 1220 779 1229 774 1239 768 c 0
 1341 709 1373 596 1314 494 c 0
 1255 392 1141 363 1039 422 c 0
 1029 428 1020 433 1009 442 c 0
 889 534 906 713 715 823 c 0
 524 933 377 830 237 888 c 0
 224 893 215 898 205 904 c 0
 103 963 71 1076 130 1178 c 0
 189 1280 303 1309 405 1250 c 0
 415 1244 424 1239 435 1230 c 0
 555 1138 538 959 729 849 c 0
737 836 m 0
 737 616 900 540 920 390 c 0
 922 376 922 366 922 354 c 0
 922 236 840 152 722 152 c 0
 604 152 522 236 522 354 c 0
 522 366 522 376 524 390 c 0
 544 540 707 616 707 836 c 0
 707 1056 544 1132 524 1282 c 0
 522 1296 522 1306 522 1318 c 0
 522 1436 604 1520 722 1520 c 0
 840 1520 922 1436 922 1318 c 0
 922 1306 922 1296 920 1282 c 0
 900 1132 737 1056 737 836 c 0
EndSplineSet
EndChar

StartChar: less
Encoding: 60 60 84
GlifName: less
Width: 1280
VWidth: 0
Flags: HMW
LayerCount: 2
Fore
SplineSet
434 524 m 257
 1150 210 l 257
 1150 10 l 257
 130 450 l 257
 130 580 l 257
 1150 1020 l 257
 1150 820 l 257
 434 524 l 257
EndSplineSet
EndChar

StartChar: greater
Encoding: 62 62 85
GlifName: greater
Width: 1280
VWidth: 0
Flags: HMW
LayerCount: 2
Fore
SplineSet
846 506 m 257
 130 820 l 257
 130 1020 l 257
 1150 580 l 257
 1150 450 l 257
 130 10 l 257
 130 210 l 257
 846 506 l 257
EndSplineSet
EndChar

StartChar: bracketleft
Encoding: 91 91 86
GlifName: bracketleft
Width: 768
Flags: HMW
LayerCount: 2
Fore
SplineSet
710 -250 m 1
 108 -250 l 1
 108 -220 l 1
 710 -220 l 1
 710 -250 l 1
710 1530 m 1
 108 1530 l 1
 108 1560 l 1
 710 1560 l 1
 710 1530 l 1
500 1560 m 5
 500 -250 l 5
 108 -250 l 1
 108 1560 l 1
 500 1560 l 5
EndSplineSet
EndChar

StartChar: asciicircum
Encoding: 94 94 88
GlifName: asciicircum
Width: 1140
VWidth: 0
Flags: HMW
LayerCount: 2
Fore
SplineSet
570 1242 m 257
 120 920 l 257
 90 920 l 257
 460 1420 l 257
 680 1420 l 261
 1050 920 l 257
 1020 920 l 257
 570 1242 l 257
EndSplineSet
EndChar

StartChar: underscore
Encoding: 95 95 89
GlifName: underscore
Width: 1000
VWidth: 0
Flags: HMW
LayerCount: 2
Fore
SplineSet
0 -306 m 261
 0 -156 l 257
 1000 -156 l 257
 1000 -306 l 261
 0 -306 l 261
EndSplineSet
EndChar

StartChar: grave
Encoding: 96 96 90
GlifName: grave
Width: 823
Flags: HMW
LayerCount: 2
Fore
SplineSet
292 1360 m 2
 193.18359375 1340.28222656 100 1422 100 1520 c 4
 100 1618 212.083984375 1699.75878906 312 1656 c 2
 723 1476 l 1
 723 1446 l 1
 292 1360 l 2
EndSplineSet
EndChar

StartChar: braceleft
Encoding: 123 123 91
GlifName: braceleft
Width: 776
VWidth: 2308
Flags: HMW
LayerCount: 2
Fore
SplineSet
716 1560 m 1
 716 1530 l 1
 592 1530 500 1440 500 1314 c 4
 500 1202 568 1107 568 947 c 4
 568 781 488 690 100 650 c 1
 100 665 l 1
 160 685 222 735 222 817 c 0
 222 943 100 1008 100 1242 c 0
 100 1460 244 1560 716 1560 c 1
716 -250 m 1
 244 -250 100 -148 100 70 c 0
 100 304 222 371 222 497 c 0
 222 579 160 625 100 645 c 1
 100 660 l 1
 488 620 568 531 568 365 c 4
 568 205 500 110 500 -2 c 4
 500 -128 592 -220 716 -220 c 1
 716 -250 l 1
EndSplineSet
EndChar

StartChar: asciitilde
Encoding: 126 126 93
GlifName: asciitilde
Width: 1374
VWidth: 2308
Flags: HMW
LayerCount: 2
Fore
SplineSet
410 814 m 0
 314 814 230 770 230 686 c 1
 200 686 l 1
 200 916 300 1080 498 1080 c 0
 718 1080 756 892 948 892 c 4
 1064 892 1146 936 1146 1020 c 1
 1176 1020 l 1
 1176 790 1076 626 878 626 c 0
 624 626 616 814 410 814 c 0
EndSplineSet
EndChar

StartChar: hyphentwo
Encoding: 8208 8208 96
GlifName: uni2010
Width: 640
Flags: HW
LayerCount: 2
Fore
SplineSet
40 450 m 257
 40 650 l 257
 600 650 l 257
 600 450 l 257
 40 450 l 257
EndSplineSet
EndChar

StartChar: hyphennobreak
Encoding: 8209 8209 97
GlifName: uni2011
Width: 640
Flags: HW
LayerCount: 2
Fore
SplineSet
40 450 m 257
 40 650 l 257
 600 650 l 257
 600 450 l 257
 40 450 l 257
EndSplineSet
EndChar

StartChar: figuredash
Encoding: 8210 8210 98
GlifName: figuredash
Width: 892
Flags: HW
LayerCount: 2
Fore
SplineSet
40 450 m 257
 40 650 l 257
 852 650 l 257
 852 450 l 257
 40 450 l 257
EndSplineSet
EndChar

StartChar: endash
Encoding: 8211 8211 99
GlifName: endash
Width: 1062
Flags: HW
LayerCount: 2
Fore
SplineSet
40 470 m 257
 40 670 l 257
 1022 670 l 257
 1022 470 l 257
 40 470 l 257
EndSplineSet
EndChar

StartChar: emdash
Encoding: 8212 8212 100
GlifName: emdash
Width: 1630
Flags: HW
LayerCount: 2
Fore
SplineSet
40 470 m 257
 40 670 l 257
 1590 670 l 257
 1590 470 l 257
 40 470 l 257
EndSplineSet
EndChar

StartChar: horizontalbar
Encoding: 8213 8213 101
GlifName: uni2015
Width: 1802
Flags: HW
LayerCount: 2
Fore
SplineSet
40 700 m 5
 72 700 l 5
 72 440 l 5
 40 440 l 5
 40 700 l 5
1732 700 m 5
 1762 700 l 5
 1762 440 l 5
 1732 440 l 5
 1732 700 l 5
40 470 m 261
 40 670 l 261
 1762 670 l 261
 1762 470 l 261
 40 470 l 261
EndSplineSet
EndChar

StartChar: perthousand
Encoding: 8240 8240 108
GlifName: perthousand
Width: 2892
VWidth: 0
Flags: HW
LayerCount: 2
Fore
SplineSet
2000 340 m 260
 2000 528 2156 700 2436 700 c 260
 2696 700 2872 528 2872 340 c 260
 2872 152 2696 -20 2436 -20 c 260
 2156 -20 2000 152 2000 340 c 260
2332 340 m 260
 2332 168 2346 0 2436 0 c 260
 2526 0 2540 168 2540 340 c 260
 2540 512 2526 680 2436 680 c 260
 2346 680 2332 512 2332 340 c 260
1516 1400 m 261
 446 0 l 261
 406 0 l 261
 1476 1400 l 261
 1516 1400 l 261
1030 340 m 260
 1030 528 1186 700 1466 700 c 260
 1726 700 1902 528 1902 340 c 260
 1902 152 1726 -20 1466 -20 c 260
 1186 -20 1030 152 1030 340 c 260
1362 340 m 260
 1362 168 1376 0 1466 0 c 260
 1556 0 1570 168 1570 340 c 260
 1570 512 1556 680 1466 680 c 260
 1376 680 1362 512 1362 340 c 260
20 1060 m 260
 20 1248 196 1420 456 1420 c 260
 716 1420 892 1248 892 1060 c 260
 892 872 716 700 456 700 c 260
 196 700 20 872 20 1060 c 260
352 1060 m 260
 352 888 366 720 456 720 c 260
 546 720 560 888 560 1060 c 260
 560 1232 546 1400 456 1400 c 260
 366 1400 352 1232 352 1060 c 260
EndSplineSet
EndChar

StartChar: pertenthousand
Encoding: 8241 8241 109
GlifName: uni2031
Width: 3862
VWidth: 0
Flags: HW
LayerCount: 2
Fore
SplineSet
2970 340 m 260
 2970 528 3126 700 3406 700 c 260
 3666 700 3842 528 3842 340 c 260
 3842 152 3666 -20 3406 -20 c 260
 3126 -20 2970 152 2970 340 c 260
3302 340 m 260
 3302 168 3316 0 3406 0 c 260
 3496 0 3510 168 3510 340 c 260
 3510 512 3496 680 3406 680 c 260
 3316 680 3302 512 3302 340 c 260
2000 340 m 256
 2000 528 2156 700 2436 700 c 256
 2696 700 2872 528 2872 340 c 256
 2872 152 2696 -20 2436 -20 c 256
 2156 -20 2000 152 2000 340 c 256
2332 340 m 256
 2332 168 2346 0 2436 0 c 256
 2526 0 2540 168 2540 340 c 256
 2540 512 2526 680 2436 680 c 256
 2346 680 2332 512 2332 340 c 256
1516 1400 m 257
 446 0 l 257
 406 0 l 257
 1476 1400 l 257
 1516 1400 l 257
1030 340 m 256
 1030 528 1186 700 1466 700 c 256
 1726 700 1902 528 1902 340 c 256
 1902 152 1726 -20 1466 -20 c 256
 1186 -20 1030 152 1030 340 c 256
1362 340 m 256
 1362 168 1376 0 1466 0 c 256
 1556 0 1570 168 1570 340 c 256
 1570 512 1556 680 1466 680 c 256
 1376 680 1362 512 1362 340 c 256
20 1060 m 256
 20 1248 196 1420 456 1420 c 256
 716 1420 892 1248 892 1060 c 256
 892 872 716 700 456 700 c 256
 196 700 20 872 20 1060 c 256
352 1060 m 256
 352 888 366 720 456 720 c 256
 546 720 560 888 560 1060 c 256
 560 1232 546 1400 456 1400 c 256
 366 1400 352 1232 352 1060 c 256
EndSplineSet
EndChar

StartChar: cent
Encoding: 162 162 111
GlifName: cent
Width: 2152
Flags: HW
LayerCount: 2
Fore
SplineSet
1082 1500 m 5
 1112 1500 l 5
 1112 -190 l 5
 1082 -190 l 5
 1082 1500 l 5
1151 1395 m 1
 1140 1425 l 1
 1499 1425 1773 1263 1773 1059 c 0
 1773 895 1650 809 1520 809 c 0
 1390 809 1275 887 1275 1027 c 0
 1275 1157 1383 1229 1502 1229 c 0
 1559.97460938 1229 1587.37109375 1214.48730469 1613 1214.48730469 c 0
 1620 1214.48730469 1623 1220 1623 1229 c 0
 1623 1297.46484375 1397.98046875 1395 1151 1395 c 1
1151 1395 m 1
 883 1395 630 1134 630 700 c 0
 630 266 843 21 1180 21 c 0
 1474 21 1686 269 1742 412 c 1
 1772 412 l 1
 1712 246 1486 -20 1120 -20 c 0
 584 -20 160 256 160 700 c 0
 160 1144 624 1425 1140 1425 c 1
 1151 1395 l 1
EndSplineSet
EndChar

StartChar: yen
Encoding: 165 165 112
GlifName: yen
Width: 2394
Flags: HW
LayerCount: 2
Fore
SplineSet
1511 380 m 257
 1511 410 l 257
 2221 410 l 257
 2221 380 l 257
 1511 380 l 257
1511 580 m 257
 1511 610 l 257
 2221 610 l 257
 2221 580 l 257
 1511 580 l 257
221 380 m 261
 221 410 l 261
 1081 410 l 261
 1081 380 l 261
 221 380 l 261
221 580 m 261
 221 610 l 261
 1081 610 l 261
 1081 580 l 261
 221 580 l 261
1835 20 m 1
 1835 0 l 1
 1511 0 l 1
 1511 175 l 17
 1511 120 1539 104 1639 65 c 0
 1704 39 1754 29 1835 20 c 1
757 20 m 1
 838 29 888 39 953 65 c 0
 1053 104 1081 120 1081 175 c 9
 1081 0 l 1
 757 0 l 1
 757 20 l 1
1081 490 m 1
 1511 610 l 1
 1511 0 l 1
 1081 0 l 1
 1081 490 l 1
1490 628 m 1
 1966 1187 l 2
 1982 1206 1923 1259 1878 1306 c 0
 1819 1368 1739 1376 1675 1380 c 1
 1675 1400 l 1
 2139 1400 l 1
 2189 1400 l 1
 2399 1400 l 1
 2399 1380 l 1
 2363 1376 2279 1337 2199 1295 c 0
 2132 1259 2035 1223 1990 1170 c 2
 1511 610 l 1
 1490 628 l 1
1511 610 m 1
 1081 490 l 1
 378 1241 l 2
 343 1278 289 1309 230 1337 c 0
 157 1372 124 1376 50 1381 c 1
 50 1401 l 1
 260 1401 l 1
 770 1401 l 1
 1134 1401 l 1
 1134 1381 l 1
 1050 1379 988 1350 948 1322 c 0
 903 1290 877 1254 903 1228 c 2
 1511 610 l 1
EndSplineSet
EndChar

StartChar: sterling
Encoding: 163 163 113
GlifName: sterling
Width: 1848
VWidth: 2308
Flags: HW
LayerCount: 2
Fore
SplineSet
50 705 m 261
 50 735 l 261
 1080 735 l 261
 1080 705 l 261
 50 705 l 261
186 1001 m 1
 636 1090 l 1
 636 922 740 871 740 721 c 0
 740 402 155 441 190 0 c 1
 170 0 l 1
 132 277 328 353 328 541 c 0
 328 770 186 771 186 1001 c 1
636 1090 m 1
 186 1001 l 1
 186 1261 552 1420 1014 1420 c 0
 1373 1420 1647 1258 1647 1054 c 0
 1647 890 1524 804 1394 804 c 0
 1264 804 1149 882 1149 1022 c 0
 1149 1152 1257 1224 1376 1224 c 0
 1433.97460938 1224 1461.37109375 1209.48730469 1487 1209.48730469 c 0
 1494 1209.48730469 1497 1215 1497 1224 c 0
 1497 1292.46484375 1270.98046875 1387 1024 1387 c 0
 792 1387 636 1303 636 1090 c 1
180 0 m 257
 180 234.627929688 448.868164062 424 798 424 c 256
 1114.89355469 424 1230.23925781 240 1491 240 c 256
 1629 240 1678 312 1688 456 c 257
 1708 456 l 257
 1708 158.213867188 1590.83984375 -50 1221 -50 c 256
 758.452148438 -50 736.58203125 224 448 224 c 256
 356 224 210 180 200 0 c 257
 180 0 l 257
EndSplineSet
EndChar

StartChar: brokenbar
Encoding: 166 166 114
GlifName: brokenbar
Width: 608
VWidth: 0
Flags: HW
LayerCount: 2
Fore
SplineSet
200 1560 m 257
 408 1560 l 257
 408 760 l 257
 200 760 l 257
 200 1560 l 257
200 360 m 257
 408 360 l 257
 408 -440 l 257
 200 -440 l 257
 200 360 l 257
EndSplineSet
EndChar

StartChar: copyright
Encoding: 169 169 115
GlifName: copyright
Width: 1860
Flags: HW
LayerCount: 2
Fore
SplineSet
100 750 m 0
 100 1176 464 1520 930 1520 c 0
 1396 1520 1760 1176 1760 750 c 0
 1760 324 1396 -20 930 -20 c 0
 464 -20 100 324 100 750 c 0
174 750 m 0
 174 362 502 52 930 52 c 0
 1358 52 1686 362 1686 750 c 0
 1686 1138 1358 1448 930 1448 c 0
 502 1448 174 1138 174 750 c 0
EndSplineSet
Refer: 3 67 S 0.6 0 0 0.6 228 320 2
EndChar

StartChar: registered
Encoding: 174 174 116
GlifName: registered
Width: 1860
Flags: HW
LayerCount: 2
Fore
SplineSet
100 750 m 0
 100 1176 464 1520 930 1520 c 0
 1396 1520 1760 1176 1760 750 c 0
 1760 324 1396 -20 930 -20 c 0
 464 -20 100 324 100 750 c 0
174 750 m 0
 174 362 502 52 930 52 c 0
 1358 52 1686 362 1686 750 c 0
 1686 1138 1358 1448 930 1448 c 0
 502 1448 174 1138 174 750 c 0
EndSplineSet
Refer: 13 82 S 0.6 0 0 0.6 230 328 2
EndChar

StartChar: macron
Encoding: 175 175 118
GlifName: macron
Width: 738
Flags: HW
LayerCount: 2
Fore
SplineSet
40 770 m 257
 40 970 l 257
 698 970 l 257
 698 770 l 257
 40 770 l 257
EndSplineSet
EndChar

StartChar: plusminus
Encoding: 177 177 120
GlifName: plusminus
Width: 1072
Flags: HW
LayerCount: 2
Fore
SplineSet
40 60 m 257
 40 260 l 257
 1030 260 l 261
 1030 60 l 261
 40 60 l 257
EndSplineSet
Refer: 76 43 N 1 0 0 1 -140 420 2
EndChar

StartChar: degree
Encoding: 176 176 121
GlifName: degree
Width: 638
Flags: HW
LayerCount: 2
Fore
SplineSet
80 1360 m 0
 80 1492 188 1600 320 1600 c 0
 452 1600 560 1492 560 1360 c 0
 560 1228 452 1120 320 1120 c 0
 188 1120 80 1228 80 1360 c 0
188 1360 m 0
 188 1286 246 1230 320 1230 c 4
 394 1230 450 1286 450 1360 c 0
 450 1434 394 1490 320 1490 c 4
 246 1490 188 1434 188 1360 c 0
EndSplineSet
EndChar

StartChar: circumflex
Encoding: 710 710 122
GlifName: circumflex
Width: 928
Flags: HW
AnchorPoint: "top" 464 1400 mark 0
LayerCount: 2
Fore
SplineSet
464 1705 m 5
 64 1554 l 5
 50 1575 l 5
 360 1895 l 5
 570 1895 l 5
 880 1575 l 5
 870 1565 l 5
 464 1705 l 5
EndSplineSet
EndChar

StartChar: caron
Encoding: 711 711 123
GlifName: caron
Width: 928
Flags: HW
AnchorPoint: "top" 464 1400 mark 0
LayerCount: 2
Fore
SplineSet
466 1760 m 5
 870 1900 l 5
 880 1890 l 5
 570 1570 l 5
 360 1570 l 5
 50 1890 l 5
 60 1900 l 5
 466 1760 l 5
EndSplineSet
EndChar

StartChar: breve
Encoding: 728 728 124
GlifName: breve
Width: 638
VWidth: 2308
Flags: HW
AnchorPoint: "top" 319 1400 mark 0
LayerCount: 2
Fore
SplineSet
39 1958 m 1
 49 1870 161 1850 319 1850 c 0
 477 1850 589 1870 599 1958 c 1
 629 1958 l 1
 629 1696 529 1580 319 1580 c 0
 109 1580 9 1696 9 1958 c 1
 39 1958 l 1
EndSplineSet
EndChar

StartChar: ring
Encoding: 730 730 126
GlifName: ring
Width: 638
VWidth: 0
Flags: HW
AnchorPoint: "top" 320 1400 mark 0
LayerCount: 2
Fore
SplineSet
140 1700 m 4
 140 1802 218 1880 320 1880 c 4
 422 1880 500 1802 500 1700 c 4
 500 1598 422 1520 320 1520 c 4
 218 1520 140 1598 140 1700 c 4
220 1700 m 4
 220 1632 264 1594 320 1594 c 4
 376 1594 422 1632 422 1700 c 4
 422 1768 376 1808 320 1808 c 4
 264 1808 220 1768 220 1700 c 4
EndSplineSet
EndChar

StartChar: ogonek
Encoding: 731 731 127
GlifName: ogonek
Width: 1098
Flags: HW
AnchorPoint: "cedilla" 663 37 mark 0
LayerCount: 2
Fore
SplineSet
826 -291 m 1
 798 -347 758 -437 556 -437 c 0
 394 -437 280 -385 280 -265 c 0
 280 -105 506 41 688 91 c 1
 706 39 l 1
 686 25 626 -49 626 -175 c 4
 626 -283 654 -331 712 -331 c 0
 764 -331 788 -313 806 -281 c 1
 826 -291 l 1
EndSplineSet
EndChar

StartChar: tilde
Encoding: 732 732 128
GlifName: tilde
Width: 1016
VWidth: 0
Flags: HW
AnchorPoint: "top" 456 1400 mark 0
LayerCount: 2
Fore
SplineSet
230 1752 m 4
 134 1752 50 1688 50 1604 c 5
 20 1604 l 5
 20 1834 120 1978 318 1978 c 4
 538 1978 566 1790 758 1790 c 4
 874 1790 966 1854 966 1938 c 5
 996 1938 l 5
 996 1708 896 1564 698 1564 c 4
 444 1564 436 1752 230 1752 c 4
EndSplineSet
EndChar

StartChar: hungarumlaut
Encoding: 733 733 129
GlifName: hungarumlaut
Width: 0
Flags: HW
AnchorPoint: "top" -542 1402 mark 0
LayerCount: 2
Fore
SplineSet
-636 1618 m 2
 -908 1560 l 1
 -918 1570 l 1
 -791 1856 l 6
 -723.466689069 2008.08288918 -540 1979 -486 1901 c 0
 -420 1805 -478 1652 -636 1618 c 2
-126 1618 m 2
 -398 1560 l 1
 -408 1570 l 1
 -281 1856 l 2
 -213.656170723 2007.65618247 -30 1979 24 1901 c 0
 90 1805 32 1652 -126 1618 c 2
EndSplineSet
EndChar

StartChar: macroncmb
Encoding: 772 772 134
GlifName: uni0304
Width: 0
Flags: HW
AnchorPoint: "top" -418 1400 mark 0
LayerCount: 2
Fore
SplineSet
-658 1600 m 257
 -658 1760 l 257
 -178 1760 l 257
 -178 1600 l 257
 -658 1600 l 257
EndSplineSet
EndChar

StartChar: dotaccentcmb
Encoding: 775 775 138
GlifName: uni0307
Width: 0
Flags: HW
LayerCount: 2
Fore
SplineSet
-594 1158 m 0
 -594 1290 -486 1398 -354 1398 c 0
 -222 1398 -114 1290 -114 1158 c 0
 -114 1026 -222 918 -354 918 c 0
 -486 918 -594 1026 -594 1158 c 0
EndSplineSet
EndChar

StartChar: cedilla
Encoding: 184 184 148
GlifName: cedilla
Width: 1098
Flags: W
HStem: -461 23<359 453.477> -228 80<443 480.818>
VStem: 515 302<-396.14 -257.656>
AnchorPoint: "cedilla" 543 0 mark 0
LayerCount: 2
Fore
SplineSet
515 -350 m 0
 515 -246 423 -228 353 -228 c 1
 533 12 l 1
 565 12 l 1
 443 -148 l 1
 647 -154 817 -198 817 -310 c 0
 817 -410 719 -461 359 -461 c 1
 359 -438 l 1
 477 -438 515 -418 515 -350 c 0
EndSplineSet
EndChar

StartChar: logicalnot
Encoding: 172 172 149
GlifName: logicalnot
Width: 1070
Flags: HW
LayerCount: 2
Fore
SplineSet
752 1030 m 1
 120 1030 l 1
 120 1230 l 1
 952 1230 l 1
 952 746 l 1
 752 746 l 1
 752 1030 l 1
EndSplineSet
EndChar

StartChar: Eth
Encoding: 208 208 168
GlifName: E_th
Width: 2244
Flags: HW
LayerCount: 2
Fore
SplineSet
156 734 m 261
 156 764 l 257
 1096 764 l 257
 1096 734 l 261
 156 734 l 261
EndSplineSet
Refer: 10 68 N 1 0 0 1 0 0 2
EndChar

StartChar: Oslash
Encoding: 216 216 171
GlifName: O_slash
Width: 2320
VWidth: 0
Flags: HW
LayerCount: 2
Fore
SplineSet
1960 1500 m 257
 410 -100 l 261
 370 -100 l 257
 1920 1500 l 257
 1960 1500 l 257
EndSplineSet
Refer: 1 79 N 1 0 0 1 0 0 2
EndChar

StartChar: AE
Encoding: 198 198 177
GlifName: A_E_
Width: 2934
Flags: HW
LayerCount: 2
Fore
SplineSet
990 1380 m 1
 990 1400 l 1
 1314 1400 l 1
 1314 1225 l 17
 1314 1280 1286.71191406 1295.64453125 1186.29199219 1335 c 0
 1121.02636719 1360.578125 1071.02441406 1371 990 1380 c 1
530 465 m 1
 1328 465 l 1
 1328 435 l 1
 520 435 l 1
 530 465 l 1
50 20 m 1
 90 20 l 2
 145.734375 20 207.866210938 110.033203125 283.046875 196 c 0
 354.01171875 277.145507812 398.772460938 323.619140625 473.021484375 403.79296875 c 2
 1303 1300 l 1
 1341 1300 l 1
 505.166992188 396.81640625 l 2
 460.202148438 342.848632812 472.893554688 260.711914062 522.708007812 188 c 0
 578.150390625 107.073242188 615.543945312 56.7666015625 650.7421875 34 c 0
 660.79296875 27.4990234375 677 20 706 20 c 2
 750 20 l 1
 750 0 l 1
 50 0 l 1
 50 20 l 1
990 20 m 1
 1071.02441406 29 1121.02636719 39.421875 1186.29199219 65 c 0
 1286.71191406 104.35546875 1314 120 1314 175 c 9
 1314 0 l 1
 990 0 l 1
 990 20 l 1
2320 446 m 1
 2279.89550781 513.232421875 2228.21191406 564.709960938 2180 614.264648438 c 0
 2132.12207031 663.4765625 2107.80566406 711 2022 711 c 2
 1662 711 l 1
 1662 741 l 1
 2022 741 l 2
 2094.92480469 741 2135.95605469 819.194335938 2188 876.4296875 c 0
 2228.58789062 921.067382812 2293.70996094 1007.28515625 2320 1066 c 1
 2340 1066 l 1
 2340 446 l 1
 2320 446 l 1
1716 1400 m 1
 2814 1400 l 1
 2814 920 l 1
 2794 920 l 1
 2734.66601562 1004.62304688 2660.19921875 1097.50390625 2568 1189.49609375 c 0
 2475.19824219 1282.08984375 2405.84082031 1370 2262 1370 c 2
 1716 1370 l 1
 1716 1400 l 1
1314 1400 m 1
 1716 1400 l 1
 1716 0 l 1
 1314 0 l 1
 1314 1400 l 1
2794 530 m 1
 2814 530 l 1
 2814 0 l 1
 1716 0 l 1
 1716 30 l 1
 2242 30 l 2
 2427.8671875 30 2507.34082031 147.495117188 2613 268.28125 c 0
 2700.40136719 368.1953125 2765.42871094 459.045898438 2794 530 c 1
EndSplineSet
EndChar

StartChar: paragraph
Encoding: 182 182 178
GlifName: paragraph
Width: 1852
Flags: HW
LayerCount: 2
Fore
SplineSet
1542 1390 m 1
 1572 1390 l 1
 1572 0 l 1
 1542 0 l 1
 1542 1390 l 1
1322 1390 m 1
 1352 1390 l 1
 1352 0 l 1
 1322 0 l 1
 1322 1390 l 1
720 0 m 2
 308 0 80 340 80 700 c 0
 80 1060 308 1400 720 1400 c 2
 1772 1400 l 1
 1772 1370 l 1
 1200 1370 l 6
 998 1370 900 1108 900 700 c 4
 900 292 998 30 1200 30 c 6
 1772 30 l 1
 1772 0 l 1
 720 0 l 2
EndSplineSet
EndChar

StartChar: Eszett
Encoding: 7838 7838 180
GlifName: uni1E_9E_
Width: 2858
VWidth: 2308
Flags: HW
LayerCount: 2
Fore
SplineSet
80 20 m 1
 161 29 211 39 276 65 c 0
 375.659179688 104.86328125 404 120 404 175 c 9
 404 0 l 1
 80 0 l 1
 80 20 l 1
1130 20 m 1
 1130 0 l 1
 806 0 l 1
 806 175 l 17
 806 120 833.288085938 104.35546875 933.708007812 65 c 0
 998.973632812 39.421875 1048.97558594 29 1130 20 c 1
2698 360 m 0
 2698 70 2190 -20 1888 -20 c 0
 1534 -20 1206 103 1206 338 c 0
 1206 470 1306 556 1456 556 c 0
 1567 556 1703 477 1703 345 c 0
 1703 211 1589 150 1490 150 c 0
 1422.31835938 150 1412.01757812 172.7421875 1394 172.7421875 c 0
 1390 172.7421875 1387 171.481445312 1387 167 c 0
 1387 117 1565.6328125 18 1808 18 c 0
 2046 18 2266 142 2266 360 c 0
 2266 588 2200 734 1732 734 c 1
 1732 754 l 1
 2314 754 2698 611 2698 360 c 0
2144 706 m 1
 2062 738 1902 726 1732 754 c 1
 2185 1305 l 1
 2099 1343 1830 1391 1582 1391 c 0
 1154 1391 806 1324 806 920 c 2
 806 0 l 1
 404 0 l 1
 404 892 l 2
 404 1336 1036 1421 1582 1421 c 0
 1950 1421 2368 1312 2548 1196 c 1
 2144 706 l 1
EndSplineSet
EndChar

StartChar: Thorn
Encoding: 222 222 182
GlifName: T_horn
Width: 2134
Flags: HW
LayerCount: 2
Fore
SplineSet
1130 1380 m 1
 1049 1371 999 1361 934 1335 c 0
 834 1296 806 1280 806 1225 c 9
 806 1400 l 1
 1130 1400 l 1
 1130 1380 l 1
1130 20 m 1
 1130 0 l 1
 806 0 l 1
 806 175 l 17
 806 120 834 104 934 65 c 0
 999 39 1049 29 1130 20 c 1
80 20 m 1
 161 29 211 39 276 65 c 0
 376 104 404 120 404 175 c 9
 404 0 l 1
 80 0 l 1
 80 20 l 1
80 1380 m 1
 80 1400 l 1
 404 1400 l 1
 404 1225 l 17
 404 1280 376 1296 276 1335 c 0
 211 1361 161 1371 80 1380 c 1
404 1400 m 1
 806 1400 l 1
 806 0 l 1
 404 0 l 1
 404 1400 l 1
1414 328 m 6
 694 328 l 5
 694 358 l 5
 1354 358 l 6
 1506 358 1614 486 1614 714 c 4
 1614 942 1506 1070 1354 1070 c 6
 702 1070 l 5
 702 1100 l 5
 1414 1100 l 6
 1776 1100 2054 974 2054 714 c 4
 2054 454 1776 328 1414 328 c 6
EndSplineSet
EndChar

StartChar: divide
Encoding: 247 247 212
GlifName: divide
Width: 1262
Flags: HW
LayerCount: 2
Fore
SplineSet
439 240 m 0
 439 346 525 432 631 432 c 0
 737 432 823 346 823 240 c 0
 823 134 737 48 631 48 c 0
 525 48 439 134 439 240 c 0
439 1120 m 0
 439 1226 525 1312 631 1312 c 0
 737 1312 823 1226 823 1120 c 0
 823 1014 737 928 631 928 c 0
 525 928 439 1014 439 1120 c 0
40 580 m 257
 40 780 l 257
 1222 780 l 257
 1222 580 l 257
 40 580 l 257
EndSplineSet
EndChar

StartChar: Hbar
Encoding: 294 294 259
GlifName: H_bar
Width: 2415
VWidth: 0
Flags: HW
LayerCount: 2
Fore
SplineSet
104 1024 m 261
 104 1054 l 261
 2311 1054 l 261
 2311 1024 l 261
 104 1024 l 261
EndSplineSet
Refer: 0 72 N 1 0 0 1 0 0 2
EndChar

StartChar: Lslash
Encoding: 321 321 282
GlifName: L_slash
Width: 1984
VWidth: 0
Flags: HW
LayerCount: 2
Fore
SplineSet
82 603 m 257
 82 638 l 257
 1242 1060 l 261
 1242 1025 l 261
 82 603 l 257
EndSplineSet
Refer: 9 76 N 1 0 0 1 0 0 2
EndChar

StartChar: OE
Encoding: 338 338 312
GlifName: O_E_
Width: 3108
Flags: HW
LayerCount: 2
Fore
SplineSet
1080 1400 m 6
 1498 1400 l 5
 1498 1370 l 5
 1080 1370 l 6
 802.870117188 1370 640 1224 640 700 c 4
 640 176 822 30 1080 30 c 6
 1498 30 l 5
 1498 0 l 5
 1080 0 l 6
 574 0 160 284 160 700 c 4
 160 1116 595.521484375 1400 1080 1400 c 6
2494 446 m 1
 2453.89550781 513.232421875 2402.21191406 564.709960938 2354 614.264648438 c 0
 2306.12207031 663.4765625 2281.80566406 711 2196 711 c 2
 1836 711 l 1
 1836 741 l 1
 2196 741 l 2
 2268.92480469 741 2309.95605469 819.194335938 2362 876.4296875 c 0
 2402.58789062 921.067382812 2467.70996094 1007.28515625 2494 1066 c 1
 2514 1066 l 1
 2514 446 l 1
 2494 446 l 1
1890 1400 m 1
 2988 1400 l 1
 2988 920 l 1
 2968 920 l 1
 2908.66601562 1004.62304688 2834.19921875 1097.50390625 2742 1189.49609375 c 0
 2649.19824219 1282.08984375 2579.84082031 1370 2436 1370 c 2
 1890 1370 l 1
 1890 1400 l 1
1488 1400 m 1
 1890 1400 l 1
 1890 0 l 1
 1488 0 l 1
 1488 1400 l 1
2968 530 m 1
 2988 530 l 1
 2988 0 l 1
 1890 0 l 1
 1890 30 l 1
 2416 30 l 2
 2601.8671875 30 2681.34082031 147.495117188 2787 268.28125 c 0
 2874.40136719 368.1953125 2939.42871094 459.045898438 2968 530 c 1
EndSplineSet
EndChar

StartChar: Tbar
Encoding: 358 358 323
GlifName: T_bar
Width: 1870
VWidth: 0
Flags: HW
LayerCount: 2
Fore
SplineSet
492 734 m 257
 492 764 l 257
 1392 764 l 261
 1392 734 l 261
 492 734 l 257
EndSplineSet
Refer: 8 84 N 1 0 0 1 0 0 2
EndChar

StartChar: guillemotleft
Encoding: 171 171 345
GlifName: guillemotleft
Width: 1507
Flags: HW
LayerCount: 2
Fore
SplineSet
1102 776 m 1
 1405 305 l 1
 1392 290 l 1
 608 765 l 1
 608 785 l 1
 1392 1260 l 1
 1407 1245 l 1
 1102 776 l 1
502 776 m 1
 845 305 l 1
 830 290 l 1
 50 765 l 1
 50 785 l 1
 830 1260 l 1
 845 1245 l 1
 502 776 l 1
EndSplineSet
EndChar

StartChar: dagger
Encoding: 8224 8224 347
GlifName: dagger
Width: 1888
Flags: HW
LayerCount: 2
Fore
SplineSet
929 -500 m 1
 929 100 768 350 668 500 c 1
 1220 500 l 1
 1120 350 959 100 959 -500 c 1
 929 -500 l 1
668 500 m 1
 768 600 929 707 929 877 c 1
 959 877 l 1
 959 707 1120 600 1220 500 c 1
 668 500 l 1
1450 651 m 0
 1330 666 1084 854 944 854 c 1
 944 884 l 1
 1084 884 1330 1072 1450 1087 c 0
 1464.03320312 1088.75390625 1474 1089 1486 1089 c 0
 1604 1089 1688 987 1688 869 c 0
 1688 751 1604 649 1486 649 c 0
 1474 649 1464.03320312 649.24609375 1450 651 c 0
1162 1282 m 0
 1147 1162 959 1016 959 876 c 1
 929 876 l 1
 929 1016 741 1162 726 1282 c 0
 724.24609375 1296.03320312 724 1306 724 1318 c 0
 724 1436 826 1520 944 1520 c 0
 1062 1520 1164 1436 1164 1318 c 0
 1164 1306 1163.75390625 1296.03320312 1162 1282 c 0
438 1087 m 0
 558 1072 804 884 944 884 c 1
 944 854 l 1
 804 854 558 666 438 651 c 0
 423.966796875 649.24609375 414 649 402 649 c 0
 284 649 200 751 200 869 c 0
 200 987 284 1089 402 1089 c 0
 414 1089 423.966796875 1088.75390625 438 1087 c 0
EndSplineSet
EndChar

StartChar: daggerdbl
Encoding: 8225 8225 348
GlifName: daggerdbl
Width: 1888
Flags: HW
LayerCount: 2
Fore
SplineSet
1220 500 m 1
 1120 400 959 293 959 123 c 1
 929 123 l 1
 929 293 768 400 668 500 c 1
 1220 500 l 1
438 349 m 0
 558 334 804 146 944 146 c 1
 944 116 l 1
 804 116 558 -72 438 -87 c 0
 423.966796875 -88.75390625 414 -89 402 -89 c 0
 284 -89 200 13 200 131 c 0
 200 249 284 351 402 351 c 0
 414 351 423.966796875 350.75390625 438 349 c 0
726 -282 m 0
 741 -162 929 -16 929 124 c 1
 959 124 l 1
 959 -16 1147 -162 1162 -282 c 0
 1163.75390625 -296.033203125 1164 -306 1164 -318 c 0
 1164 -436 1062 -520 944 -520 c 0
 826 -520 724 -436 724 -318 c 0
 724 -306 724.24609375 -296.033203125 726 -282 c 0
1450 -87 m 0
 1330 -72 1084 116 944 116 c 1
 944 146 l 1
 1084 146 1330 334 1450 349 c 0
 1464.03320312 350.75390625 1474 351 1486 351 c 0
 1604 351 1688 249 1688 131 c 0
 1688 13 1604 -89 1486 -89 c 0
 1474 -89 1464.03320312 -88.75390625 1450 -87 c 0
668 500 m 1
 768 600 929 707 929 877 c 1
 959 877 l 1
 959 707 1120 600 1220 500 c 1
 668 500 l 1
1450 651 m 0
 1330 666 1084 854 944 854 c 1
 944 884 l 1
 1084 884 1330 1072 1450 1087 c 0
 1464.03320312 1088.75390625 1474 1089 1486 1089 c 0
 1604 1089 1688 987 1688 869 c 0
 1688 751 1604 649 1486 649 c 0
 1474 649 1464.03320312 649.24609375 1450 651 c 0
1162 1282 m 0
 1147 1162 959 1016 959 876 c 1
 929 876 l 1
 929 1016 741 1162 726 1282 c 0
 724.24609375 1296.03320312 724 1306 724 1318 c 0
 724 1436 826 1520 944 1520 c 0
 1062 1520 1164 1436 1164 1318 c 0
 1164 1306 1163.75390625 1296.03320312 1162 1282 c 0
438 1087 m 0
 558 1072 804 884 944 884 c 1
 944 854 l 1
 804 854 558 666 438 651 c 0
 423.966796875 649.24609375 414 649 402 649 c 0
 284 649 200 751 200 869 c 0
 200 987 284 1089 402 1089 c 0
 414 1089 423.966796875 1088.75390625 438 1087 c 0
EndSplineSet
EndChar

StartChar: guilsinglleft
Encoding: 8249 8249 350
GlifName: guilsinglleft
Width: 945
Flags: HW
LayerCount: 2
Fore
SplineSet
502 776 m 1
 845 305 l 1
 830 290 l 1
 50 765 l 1
 50 785 l 1
 830 1260 l 1
 845 1245 l 1
 502 776 l 1
EndSplineSet
EndChar

StartChar: Euro
Encoding: 8364 8364 353
GlifName: E_uro
Width: 2152
Flags: HW
LayerCount: 2
Fore
SplineSet
11 580 m 257
 11 610 l 257
 1131 610 l 261
 1131 580 l 261
 11 580 l 257
11 780 m 257
 11 810 l 257
 1131 810 l 261
 1131 780 l 261
 11 780 l 257
1141 1395 m 1
 1130 1425 l 1
 1489 1425 1763 1263 1763 1059 c 0
 1763 895 1640 809 1510 809 c 0
 1380 809 1265 887 1265 1027 c 0
 1265 1157 1373 1229 1492 1229 c 0
 1549.97460938 1229 1577.37109375 1214.48730469 1603 1214.48730469 c 0
 1610 1214.48730469 1613 1220 1613 1229 c 0
 1613 1297.46484375 1387.98046875 1395 1141 1395 c 1
1141 1395 m 1
 823 1395 630 1134 630 700 c 0
 630 266 843 21 1180 21 c 0
 1474 21 1686 269 1742 412 c 1
 1772 412 l 1
 1712 246 1486 -20 1120 -20 c 0
 584 -20 160 256 160 700 c 0
 160 1144 564 1425 1130 1425 c 1
 1141 1395 l 1
EndSplineSet
EndChar

StartChar: Cowboy
Encoding: 63743 63743 368
GlifName: uniF_8F_F_
Width: 1796
VWidth: 0
Flags: HW
LayerCount: 2
Fore
SplineSet
936 1570 m 0
 1052 1570 1172 1456 1232 1392 c 1
 1258 1388 1282 1384 1302 1384 c 0
 1382 1384 1408 1412 1438 1396 c 0
 1468 1380 1538 1242 1526 1162 c 0
 1514 1082 1462 870 1358 858 c 0
 1336 856 1298 854 1250 850 c 1
 1256 864 1260 880 1262 900 c 0
 1268 958 1266 1030 1254 1024 c 0
 1242 1018 1256 1118 1228 1144 c 0
 1200 1170 1132 1236 960 1240 c 0
 788 1244 752 1254 720 1216 c 0
 688 1178 692 1152 690 1126 c 0
 688 1100 702 980 702 980 c 1
 702 980 656 1016 648 1004 c 0
 640 992 652 924 664 880 c 0
 666 874 670 864 672 858 c 1
 664 860 658 862 652 864 c 0
 534 914 424 1052 412 1170 c 0
 400 1288 458 1464 458 1464 c 1
 458 1464 484 1426 560 1426 c 0
 617 1426 680 1439 716 1447 c 1
 750 1498 828 1570 936 1570 c 0
1100 1102 m 0
 1140 1102 1180 1048 1180 1048 c 1
 1180 1048 1124 1082 1090 1082 c 0
 1056 1082 1024 1054 1024 1054 c 2
 1024 1054 1058 1100 1098 1102 c 0
 1100 1102 1098 1102 1100 1102 c 0
840 1086 m 0
 882 1086 906 1064 906 1064 c 2
 906 1064 872 1070 834 1068 c 0
 796 1066 752 1018 752 1018 c 1
 752 1018 784 1080 830 1084 c 0
 832 1084 838 1086 840 1086 c 0
1004 810 m 0
 1008 810 l 0
 1026 808 1078 790 1078 790 c 1
 1078 790 1000 784 992 788 c 0
 984 792 988 810 1004 810 c 0
944 804 m 0
 954 804 960 802 960 794 c 0
 958 772 850 770 850 770 c 1
 850 770 862 782 888 790 c 0
 904 796 928 804 944 804 c 0
756 636 m 1
 794 574 842 534 942 538 c 0
 1018 542 1094 566 1142 618 c 1
 1140 556 1136 498 1126 472 c 0
 1100 408 942 372 942 372 c 1
 942 372 802 476 768 552 c 0
 758 572 754 602 756 636 c 1
756 636 m 1
 756 636 716 466 690 142 c 0
 686 96 686 46 684 0 c 1
 0 0 l 1
 0 44 l 1
 28 144 60 264 84 320 c 0
 130 430 156 468 156 468 c 1
 156 468 324 526 458 526 c 0
 592 526 630 522 714 598 c 0
 740 620 756 636 756 636 c 1
942 372 m 1
 1010 316 l 1
 966 216 l 1
 966 216 950 152 1022 26 c 0
 1026 18 1030 10 1034 0 c 1
 824 0 l 1
 846 68 870 100 884 126 c 0
 904 164 920 220 920 220 c 1
 888 308 l 1
 942 372 l 1
1156 570 m 1
 1176 554 1192 540 1208 526 c 0
 1300 446 1434 430 1580 372 c 0
 1726 314 1766 314 1766 100 c 0
 1766 68 1766 34 1766 0 c 1
 1232 0 l 1
 1230 18 1230 34 1228 52 c 0
 1214 240 1178 458 1156 570 c 1
EndSplineSet
EndChar

StartChar: acute
Encoding: 180 180 373
Width: 823
Flags: HW
LayerCount: 2
Fore
SplineSet
531 1360 m 6
 100 1446 l 5
 100 1476 l 5
 511 1656 l 6
 611 1700 723 1618 723 1520 c 4
 723 1422 630 1340 531 1360 c 6
EndSplineSet
EndChar

StartChar: at
Encoding: 64 64 385
Width: 2552
VWidth: 2308
Flags: HW
LayerCount: 2
Fore
SplineSet
524 714 m 1
 956 714 l 1
 956 496 1014 353 1212 353 c 0
 1353.3671875 353 1512 464 1512 714 c 1
 1542 714 l 1
 1542 489 1417 294 1124 294 c 0
 772 294 524 474 524 714 c 1
524 714 m 1
 524 954 772 1134 1124 1134 c 0
 1417 1134 1542 939 1542 714 c 1
 1512 714 l 1
 1512 964 1353.3671875 1075 1212 1075 c 0
 1014 1075 956 932 956 714 c 1
 524 714 l 1
1512 575 m 2
 1512 1110 l 1
 1894 1110 l 1
 1894 495 l 2
 1894 397 1950 349 2064 349 c 0
 2170 349 2417 446 2417 742 c 0
 2417 1112 1944 1420 1302 1420 c 0
 688 1420 135 1142 135 662 c 4
 135 183 776 -8 1280 -8 c 4
 1642 -8 1946 72 2126 168 c 1
 2137 139 l 1
 1969 43 1646 -38 1280 -38 c 4
 744 -38 100 161 100 662 c 4
 100 1163 666 1450 1302 1450 c 0
 1968 1450 2452 1128 2452 742 c 0
 2452 422 2175 291 1934 291 c 0
 1656 291 1512 401 1512 575 c 2
EndSplineSet
EndChar

StartChar: Eng
Encoding: 330 330 386
Width: 2888
Flags: HW
LayerCount: 2
Fore
SplineSet
2073 710 m 17
 2073 1144 1732 1390 1395 1390 c 4
 1091 1390 806 1191 806 828 c 1
 776 828 l 1
 780 1214 1079 1430 1465 1430 c 0
 2001 1430 2475 1154 2475 710 c 1
 2073 710 l 17
2073 710 m 1
 2475 710 l 1
 2475 359 l 2
 2475 340.868164062 2468.61230469 325.46484375 2462.27832031 316 c 0
 2298.63769531 71.4931640625 2027.13867188 -61 1752 -61 c 0
 1498 -61 1210 130 1210 330 c 0
 1210 474 1323 575 1454 575 c 0
 1574 575 1697 485 1697 343 c 0
 1697 227 1623 168 1494 168 c 0
 1449 168 1420 157 1420 133 c 0
 1420 120 1426.76464844 104.7421875 1452 78 c 0
 1519 7 1618 -31 1747 -31 c 0
 1920 -31 2073 101 2073 380 c 2
 2073 710 l 1
1130 20 m 1
 1130 0 l 1
 806 0 l 1
 806 175 l 17
 806 120 833.288085938 104.35546875 933.708007812 65 c 0
 998.973632812 39.421875 1048.97558594 29 1130 20 c 1
80 20 m 1
 161.024414062 29 211.026367188 39.421875 276.291992188 65 c 0
 376.711914062 104.35546875 404 120 404 175 c 9
 404 0 l 1
 80 0 l 1
 80 20 l 1
80 1380 m 1
 80 1400 l 1
 404 1400 l 1
 404 1225 l 17
 404 1280 376.711914062 1295.64453125 276.291992188 1335 c 0
 211.026367188 1360.578125 161.024414062 1371 80 1380 c 1
404 1400 m 1
 806 1400 l 1
 806 0 l 1
 404 0 l 1
 404 1400 l 1
EndSplineSet
EndChar
